<svg xmlns="http://www.w3.org/2000/svg" xmlns:xlink="http://www.w3.org/1999/xlink" width="500" zoomAndPan="magnify" viewBox="0 0 375 374.999991" height="500" preserveAspectRatio="xMidYMid meet" version="1.0"><defs><g/><clipPath id="dbd443b8c2"><path d="M 0 332 L 230 332 L 230 375 L 0 375 Z M 0 332 " clip-rule="nonzero"/></clipPath><clipPath id="7bee24d7b9"><path d="M -72.628906 338.960938 L 75.132812 198.308594 L 229.746094 360.734375 L 81.984375 501.386719 Z M -72.628906 338.960938 " clip-rule="nonzero"/></clipPath><clipPath id="a82df9854a"><path d="M -129.742188 393.328125 L 75.597656 197.863281 L 283.476562 416.242188 L 78.132812 611.710938 Z M -129.742188 393.328125 " clip-rule="nonzero"/></clipPath></defs><rect x="-37.5" width="450" fill="#ffffff" y="-37.499999" height="449.999989" fill-opacity="1"/><rect x="-37.5" width="450" fill="#ffffff" y="-37.499999" height="449.999989" fill-opacity="1"/><g fill="#2a3d74" fill-opacity="1"><g transform="translate(127.101207, 123.746272)"><g><path d="M 0.875 0 L 0.875 -0.546875 C 1.382812 -0.609375 1.734375 -0.703125 1.921875 -0.828125 C 2.117188 -0.953125 2.21875 -1.191406 2.21875 -1.546875 L 2.21875 -15.359375 C 2.21875 -15.703125 2.125 -15.9375 1.9375 -16.0625 C 1.757812 -16.195312 1.40625 -16.289062 0.875 -16.34375 L 0.875 -16.890625 L 8.515625 -16.890625 L 8.515625 -16.34375 C 7.984375 -16.289062 7.628906 -16.195312 7.453125 -16.0625 C 7.273438 -15.9375 7.1875 -15.703125 7.1875 -15.359375 L 7.1875 -0.8125 L 8.171875 -0.8125 C 9.046875 -0.8125 9.816406 -1.019531 10.484375 -1.4375 C 11.148438 -1.851562 11.726562 -2.390625 12.21875 -3.046875 C 12.71875 -3.703125 13.148438 -4.367188 13.515625 -5.046875 L 14.0625 -5.046875 L 13.3125 0 Z M 0.875 0 "/></g></g></g><g fill="#2a3d74" fill-opacity="1"><g transform="translate(141.908053, 123.746272)"><g><path d="M 3.96875 0.375 C 2.875 0.375 2.019531 0.0703125 1.40625 -0.53125 C 0.800781 -1.132812 0.5 -1.894531 0.5 -2.8125 C 0.5 -3.550781 0.691406 -4.164062 1.078125 -4.65625 C 1.472656 -5.144531 2.003906 -5.550781 2.671875 -5.875 C 3.335938 -6.195312 4.082031 -6.460938 4.90625 -6.671875 C 5.738281 -6.890625 6.597656 -7.097656 7.484375 -7.296875 L 7.484375 -9.125 C 7.484375 -10.144531 7.40625 -10.90625 7.25 -11.40625 C 7.101562 -11.914062 6.816406 -12.171875 6.390625 -12.171875 C 6.140625 -12.171875 5.898438 -12.035156 5.671875 -11.765625 C 5.453125 -11.492188 5.316406 -11.078125 5.265625 -10.515625 C 5.210938 -9.960938 5.328125 -9.25 5.609375 -8.375 C 4.710938 -8.019531 3.945312 -7.875 3.3125 -7.9375 C 2.675781 -8.007812 2.1875 -8.222656 1.84375 -8.578125 C 1.507812 -8.941406 1.34375 -9.367188 1.34375 -9.859375 C 1.34375 -10.410156 1.566406 -10.90625 2.015625 -11.34375 C 2.460938 -11.78125 3.085938 -12.128906 3.890625 -12.390625 C 4.691406 -12.660156 5.625 -12.796875 6.6875 -12.796875 C 10.40625 -12.796875 12.265625 -11.179688 12.265625 -7.953125 L 12.265625 -2.28125 C 12.265625 -1.882812 12.441406 -1.6875 12.796875 -1.6875 C 12.929688 -1.6875 13.054688 -1.710938 13.171875 -1.765625 C 13.296875 -1.828125 13.441406 -1.910156 13.609375 -2.015625 L 13.90625 -1.5625 C 13.445312 -1.019531 12.894531 -0.566406 12.25 -0.203125 C 11.601562 0.148438 10.898438 0.328125 10.140625 0.328125 C 9.472656 0.328125 8.921875 0.191406 8.484375 -0.078125 C 8.054688 -0.359375 7.765625 -0.804688 7.609375 -1.421875 C 7.421875 -1.203125 7.160156 -0.953125 6.828125 -0.671875 C 6.492188 -0.390625 6.09375 -0.144531 5.625 0.0625 C 5.15625 0.269531 4.601562 0.375 3.96875 0.375 Z M 6.1875 -1.359375 C 6.46875 -1.359375 6.710938 -1.425781 6.921875 -1.5625 C 7.128906 -1.695312 7.316406 -1.875 7.484375 -2.09375 L 7.484375 -6.75 C 6.453125 -6.351562 5.738281 -5.875 5.34375 -5.3125 C 4.957031 -4.75 4.765625 -4.085938 4.765625 -3.328125 C 4.765625 -2.679688 4.894531 -2.191406 5.15625 -1.859375 C 5.425781 -1.523438 5.769531 -1.359375 6.1875 -1.359375 Z M 6.1875 -1.359375 "/></g></g></g><g fill="#2a3d74" fill-opacity="1"><g transform="translate(155.82052, 123.746272)"><g><path d="M 5.984375 0 L 1.59375 -10.6875 C 1.425781 -11.113281 1.222656 -11.394531 0.984375 -11.53125 C 0.753906 -11.675781 0.453125 -11.773438 0.078125 -11.828125 L 0.078125 -12.421875 L 7.84375 -12.421875 L 7.84375 -11.828125 C 7.414062 -11.804688 7.097656 -11.660156 6.890625 -11.390625 C 6.679688 -11.128906 6.6875 -10.726562 6.90625 -10.1875 L 9.359375 -3.90625 L 10.8125 -7.796875 C 11.269531 -9.078125 11.429688 -10.0625 11.296875 -10.75 C 11.171875 -11.445312 10.632812 -11.804688 9.6875 -11.828125 L 9.6875 -12.421875 L 14.453125 -12.421875 L 14.453125 -11.828125 C 13.972656 -11.742188 13.585938 -11.585938 13.296875 -11.359375 C 13.015625 -11.140625 12.753906 -10.75 12.515625 -10.1875 L 8.546875 0 Z M 5.984375 0 "/></g></g></g><g fill="#2a3d74" fill-opacity="1"><g transform="translate(170.2547, 123.746272)"><g><path d="M 13.390625 0.375 C 12.847656 0.375 12.351562 0.335938 11.90625 0.265625 C 11.46875 0.191406 11.035156 0.0078125 10.609375 -0.28125 C 10.191406 -0.570312 9.742188 -1.035156 9.265625 -1.671875 C 8.785156 -2.316406 8.238281 -3.203125 7.625 -4.328125 L 6.859375 -5.71875 L 6.515625 -5.359375 L 6.515625 -1.84375 C 6.515625 -1.375 6.59375 -1.066406 6.75 -0.921875 C 6.90625 -0.773438 7.210938 -0.664062 7.671875 -0.59375 L 7.671875 0 L 0.546875 0 L 0.546875 -0.59375 C 1.003906 -0.664062 1.3125 -0.773438 1.46875 -0.921875 C 1.632812 -1.066406 1.71875 -1.375 1.71875 -1.84375 L 1.71875 -15.78125 C 1.71875 -16.144531 1.601562 -16.40625 1.375 -16.5625 C 1.15625 -16.726562 0.867188 -16.8125 0.515625 -16.8125 L 0.515625 -17.421875 C 1.066406 -17.429688 1.703125 -17.46875 2.421875 -17.53125 C 3.140625 -17.601562 3.84375 -17.703125 4.53125 -17.828125 C 5.21875 -17.960938 5.785156 -18.128906 6.234375 -18.328125 L 6.515625 -18.1875 L 6.515625 -6.28125 L 8.96875 -8.6875 C 9.875 -9.601562 10.328125 -10.328125 10.328125 -10.859375 C 10.328125 -11.191406 10.210938 -11.4375 9.984375 -11.59375 C 9.753906 -11.757812 9.484375 -11.851562 9.171875 -11.875 L 9.171875 -12.421875 L 15.203125 -12.421875 L 15.203125 -11.875 C 14.722656 -11.789062 14.28125 -11.691406 13.875 -11.578125 C 13.46875 -11.460938 13.066406 -11.285156 12.671875 -11.046875 C 12.273438 -10.816406 11.835938 -10.472656 11.359375 -10.015625 L 10.015625 -8.71875 L 12.21875 -5.34375 C 13.03125 -4.113281 13.675781 -3.164062 14.15625 -2.5 C 14.632812 -1.84375 15.019531 -1.382812 15.3125 -1.125 C 15.601562 -0.875 15.847656 -0.734375 16.046875 -0.703125 L 16.046875 -0.15625 C 15.785156 0.0078125 15.382812 0.140625 14.84375 0.234375 C 14.300781 0.328125 13.816406 0.375 13.390625 0.375 Z M 13.390625 0.375 "/></g></g></g><g fill="#2a3d74" fill-opacity="1"><g transform="translate(185.955913, 123.746272)"><g><path d="M 7.25 0.375 C 6.113281 0.375 5.0625 0.125 4.09375 -0.375 C 3.125 -0.875 2.34375 -1.601562 1.75 -2.5625 C 1.164062 -3.519531 0.875 -4.6875 0.875 -6.0625 C 0.875 -7.332031 1.15625 -8.472656 1.71875 -9.484375 C 2.28125 -10.492188 3.054688 -11.296875 4.046875 -11.890625 C 5.046875 -12.492188 6.191406 -12.796875 7.484375 -12.796875 C 8.578125 -12.796875 9.453125 -12.617188 10.109375 -12.265625 C 10.773438 -11.921875 11.28125 -11.488281 11.625 -10.96875 C 11.976562 -10.457031 12.207031 -9.9375 12.3125 -9.40625 C 12.414062 -8.882812 12.453125 -8.441406 12.421875 -8.078125 L 5.765625 -7.078125 C 5.878906 -5.691406 6.265625 -4.613281 6.921875 -3.84375 C 7.585938 -3.082031 8.367188 -2.6875 9.265625 -2.65625 C 9.859375 -2.644531 10.40625 -2.71875 10.90625 -2.875 C 11.40625 -3.03125 11.910156 -3.289062 12.421875 -3.65625 L 12.84375 -3.28125 C 12.5625 -2.769531 12.175781 -2.226562 11.6875 -1.65625 C 11.195312 -1.082031 10.585938 -0.597656 9.859375 -0.203125 C 9.128906 0.179688 8.257812 0.375 7.25 0.375 Z M 5.734375 -7.71875 L 8.640625 -8.203125 C 8.742188 -8.929688 8.757812 -9.59375 8.6875 -10.1875 C 8.625 -10.78125 8.484375 -11.253906 8.265625 -11.609375 C 8.054688 -11.972656 7.757812 -12.15625 7.375 -12.15625 C 6.925781 -12.15625 6.582031 -11.945312 6.34375 -11.53125 C 6.101562 -11.113281 5.941406 -10.566406 5.859375 -9.890625 C 5.773438 -9.222656 5.734375 -8.5 5.734375 -7.71875 Z M 5.734375 -7.71875 "/></g></g></g><g fill="#2a3d74" fill-opacity="1"><g transform="translate(199.371512, 123.746272)"><g><path d="M 0.546875 0 L 0.546875 -0.59375 C 1.003906 -0.664062 1.3125 -0.773438 1.46875 -0.921875 C 1.632812 -1.066406 1.71875 -1.375 1.71875 -1.84375 L 1.71875 -10.359375 C 1.71875 -10.722656 1.601562 -10.988281 1.375 -11.15625 C 1.15625 -11.320312 0.867188 -11.40625 0.515625 -11.40625 L 0.515625 -12 C 1.066406 -12.019531 1.703125 -12.0625 2.421875 -12.125 C 3.140625 -12.1875 3.84375 -12.285156 4.53125 -12.421875 C 5.21875 -12.554688 5.785156 -12.722656 6.234375 -12.921875 L 6.515625 -12.765625 L 6.515625 -11.421875 C 7.035156 -11.890625 7.65625 -12.238281 8.375 -12.46875 C 9.101562 -12.695312 9.804688 -12.8125 10.484375 -12.8125 C 11.742188 -12.8125 12.71875 -12.457031 13.40625 -11.75 C 14.09375 -11.039062 14.4375 -10.003906 14.4375 -8.640625 L 14.4375 -1.546875 C 14.4375 -1.191406 14.515625 -0.953125 14.671875 -0.828125 C 14.828125 -0.703125 15.140625 -0.609375 15.609375 -0.546875 L 15.609375 0 L 8.671875 0 L 8.671875 -0.546875 C 9.035156 -0.609375 9.285156 -0.703125 9.421875 -0.828125 C 9.566406 -0.953125 9.640625 -1.191406 9.640625 -1.546875 L 9.640625 -9.140625 C 9.640625 -9.921875 9.5 -10.492188 9.21875 -10.859375 C 8.945312 -11.222656 8.570312 -11.40625 8.09375 -11.40625 C 7.800781 -11.40625 7.515625 -11.328125 7.234375 -11.171875 C 6.960938 -11.023438 6.722656 -10.863281 6.515625 -10.6875 L 6.515625 -1.84375 C 6.515625 -1.375 6.59375 -1.066406 6.75 -0.921875 C 6.90625 -0.773438 7.210938 -0.664062 7.671875 -0.59375 L 7.671875 0 Z M 0.546875 0 "/></g></g></g><g clip-path="url(#dbd443b8c2)"><g clip-path="url(#7bee24d7b9)"><g clip-path="url(#a82df9854a)"><path fill="#ffffff" d="M 227.429688 360.277344 C 209.234375 343.3125 185.359375 345.089844 163.5625 355.15625 C 142.605469 364.757812 125.398438 373.355469 101.832031 368.089844 C 82.488281 363.757812 65.3125 353.257812 47.367188 345.632812 C 20.664062 334.289062 -9.882812 327.882812 -38.738281 337.992188 C -90.785156 356.246094 -105.179688 417.742188 -68.988281 456.480469 C -49.65625 477.148438 -20.921875 486.046875 7.171875 487.179688 C 27.347656 487.980469 44.71875 486.832031 62.183594 498.082031 C 74.558594 506.054688 85.421875 516.746094 99.4375 522.042969 C 127.867188 532.773438 163.710938 514.46875 188.015625 498.597656 C 215.351562 480.699219 224.953125 451.984375 234.734375 422.917969 C 234.78125 422.875 234.78125 422.875 234.78125 422.875 C 246.027344 401.996094 244.902344 376.5625 227.429688 360.277344 Z M 227.429688 360.277344 " fill-opacity="1" fill-rule="nonzero"/></g></g></g><g fill="#2a3d74" fill-opacity="1"><g transform="translate(123.878655, 137.499578)"><g><path d="M 6.890625 -3.46875 C 6.921875 -3.519531 7 -3.515625 7.125 -3.453125 C 7.25 -3.398438 7.367188 -3.320312 7.484375 -3.21875 C 7.609375 -3.113281 7.695312 -3 7.75 -2.875 C 7.8125 -2.757812 7.796875 -2.648438 7.703125 -2.546875 C 7.484375 -2.296875 7.1875 -2.023438 6.8125 -1.734375 C 6.4375 -1.453125 6.003906 -1.253906 5.515625 -1.140625 C 5.109375 -1.054688 4.773438 -1.09375 4.515625 -1.25 C 4.253906 -1.40625 4.035156 -1.644531 3.859375 -1.96875 C 3.679688 -2.300781 3.546875 -2.65625 3.453125 -3.03125 C 3.390625 -2.914062 3.332031 -2.800781 3.28125 -2.6875 C 3.226562 -2.570312 3.179688 -2.457031 3.140625 -2.34375 C 2.765625 -1.5625 2.3125 -1.007812 1.78125 -0.6875 C 1.25 -0.375 0.78125 -0.269531 0.375 -0.375 C -0.0507812 -0.488281 -0.375 -0.695312 -0.59375 -1 C -0.820312 -1.3125 -0.976562 -1.753906 -1.0625 -2.328125 C -1.15625 -2.867188 -1.1875 -3.316406 -1.15625 -3.671875 C -1.125 -4.023438 -1.078125 -4.304688 -1.015625 -4.515625 C -0.960938 -4.734375 -0.941406 -4.894531 -0.953125 -5 C -0.941406 -5.082031 -0.914062 -5.125 -0.875 -5.125 C -0.769531 -5.164062 -0.628906 -5.222656 -0.453125 -5.296875 C -0.273438 -5.378906 -0.0390625 -5.398438 0.25 -5.359375 C 0.332031 -5.347656 0.375 -5.289062 0.375 -5.1875 C 0.375 -5.113281 0.363281 -4.945312 0.34375 -4.6875 C 0.332031 -4.4375 0.328125 -4.160156 0.328125 -3.859375 C 0.335938 -3.554688 0.351562 -3.289062 0.375 -3.0625 C 0.414062 -2.582031 0.476562 -2.226562 0.5625 -2 C 0.65625 -1.769531 0.789062 -1.679688 0.96875 -1.734375 C 1.164062 -1.773438 1.378906 -1.972656 1.609375 -2.328125 C 1.847656 -2.679688 2.070312 -3.109375 2.28125 -3.609375 C 2.5 -4.109375 2.6875 -4.601562 2.84375 -5.09375 C 3.007812 -5.582031 3.113281 -5.984375 3.15625 -6.296875 C 3.164062 -6.421875 3.171875 -6.53125 3.171875 -6.625 C 3.179688 -6.726562 3.1875 -6.8125 3.1875 -6.875 C 3.207031 -6.914062 3.238281 -6.957031 3.28125 -7 C 3.375 -7.039062 3.535156 -7.082031 3.765625 -7.125 C 4.003906 -7.164062 4.25 -7.175781 4.5 -7.15625 C 4.59375 -7.15625 4.632812 -7.101562 4.625 -7 C 4.625 -6.875 4.617188 -6.679688 4.609375 -6.421875 C 4.597656 -6.171875 4.59375 -5.910156 4.59375 -5.640625 C 4.59375 -5.441406 4.597656 -5.164062 4.609375 -4.8125 C 4.628906 -4.46875 4.664062 -4.101562 4.71875 -3.71875 C 4.769531 -3.34375 4.859375 -3.023438 4.984375 -2.765625 C 5.117188 -2.515625 5.28125 -2.40625 5.46875 -2.4375 C 5.632812 -2.457031 5.8125 -2.523438 6 -2.640625 C 6.195312 -2.765625 6.375 -2.90625 6.53125 -3.0625 C 6.695312 -3.226562 6.816406 -3.363281 6.890625 -3.46875 Z M 6.890625 -3.46875 "/></g></g></g><g fill="#2a3d74" fill-opacity="1"><g transform="translate(132.464138, 135.744235)"><g><path d="M 3.203125 -5.75 C 3.410156 -5.769531 3.640625 -5.710938 3.890625 -5.578125 C 4.148438 -5.441406 4.367188 -5.21875 4.546875 -4.90625 C 4.734375 -4.601562 4.835938 -4.179688 4.859375 -3.640625 C 4.921875 -2.859375 4.9375 -2.1875 4.90625 -1.625 C 4.882812 -1.0625 4.847656 -0.757812 4.796875 -0.71875 C 4.722656 -0.6875 4.582031 -0.671875 4.375 -0.671875 C 4.164062 -0.671875 3.960938 -0.691406 3.765625 -0.734375 C 3.578125 -0.785156 3.476562 -0.859375 3.46875 -0.953125 C 3.457031 -1.003906 3.457031 -1.15625 3.46875 -1.40625 C 3.476562 -1.664062 3.484375 -1.96875 3.484375 -2.3125 C 3.492188 -2.664062 3.488281 -3.007812 3.46875 -3.34375 C 3.457031 -3.6875 3.425781 -3.972656 3.375 -4.203125 C 3.320312 -4.441406 3.238281 -4.566406 3.125 -4.578125 C 3 -4.597656 2.800781 -4.453125 2.53125 -4.140625 C 2.269531 -3.828125 2.003906 -3.429688 1.734375 -2.953125 C 1.460938 -2.472656 1.21875 -1.984375 1 -1.484375 C 0.78125 -0.984375 0.640625 -0.546875 0.578125 -0.171875 C 0.578125 -0.109375 0.550781 -0.09375 0.5 -0.125 C 0.5 -0.125 0.40625 -0.101562 0.21875 -0.0625 C 0.03125 -0.0195312 -0.164062 -0.00390625 -0.375 -0.015625 C -0.59375 -0.0351562 -0.726562 -0.09375 -0.78125 -0.1875 C -0.820312 -0.738281 -0.84375 -1.316406 -0.84375 -1.921875 C -0.84375 -2.535156 -0.828125 -3.128906 -0.796875 -3.703125 C -0.773438 -4.285156 -0.757812 -4.773438 -0.75 -5.171875 C -0.738281 -5.660156 -0.6875 -5.957031 -0.59375 -6.0625 C -0.5 -6.164062 -0.390625 -6.226562 -0.265625 -6.25 C 0.179688 -6.300781 0.460938 -6.300781 0.578125 -6.25 C 0.691406 -6.207031 0.742188 -6.054688 0.734375 -5.796875 C 0.710938 -5.453125 0.691406 -5.070312 0.671875 -4.65625 C 0.648438 -4.238281 0.632812 -3.832031 0.625 -3.4375 C 0.78125 -3.820312 1 -4.191406 1.28125 -4.546875 C 1.5625 -4.898438 1.867188 -5.1875 2.203125 -5.40625 C 2.535156 -5.632812 2.867188 -5.75 3.203125 -5.75 Z M 3.203125 -5.75 "/></g></g></g><g fill="#2a3d74" fill-opacity="1"><g transform="translate(139.048621, 134.788573)"><g/></g></g><g fill="#2a3d74" fill-opacity="1"><g transform="translate(144.691653, 134.228628)"><g><path d="M 6.71875 -4.296875 C 6.789062 -4.242188 6.789062 -4.160156 6.71875 -4.046875 C 6.550781 -3.835938 6.242188 -3.582031 5.796875 -3.28125 C 5.347656 -2.988281 4.757812 -2.769531 4.03125 -2.625 C 3.914062 -2.195312 3.734375 -1.773438 3.484375 -1.359375 C 3.234375 -0.941406 2.90625 -0.601562 2.5 -0.34375 C 2.101562 -0.09375 1.617188 -0.0195312 1.046875 -0.125 C 0.585938 -0.1875 0.238281 -0.332031 0 -0.5625 C -0.238281 -0.800781 -0.40625 -1.082031 -0.5 -1.40625 C -0.601562 -1.726562 -0.648438 -2.046875 -0.640625 -2.359375 C -0.640625 -2.679688 -0.617188 -2.957031 -0.578125 -3.1875 C -0.503906 -3.53125 -0.363281 -3.957031 -0.15625 -4.46875 C 0.0507812 -4.988281 0.394531 -5.46875 0.875 -5.90625 C 1.019531 -6.019531 1.132812 -6.09375 1.21875 -6.125 C 1.320312 -6.195312 1.410156 -6.242188 1.484375 -6.265625 C 1.703125 -6.347656 1.921875 -6.382812 2.140625 -6.375 C 2.367188 -6.363281 2.484375 -6.359375 2.484375 -6.359375 C 2.484375 -6.359375 2.570312 -6.332031 2.75 -6.28125 C 2.925781 -6.238281 3.128906 -6.144531 3.359375 -6 C 3.585938 -5.851562 3.785156 -5.613281 3.953125 -5.28125 C 4.128906 -4.945312 4.21875 -4.492188 4.21875 -3.921875 C 4.46875 -3.941406 4.75 -4.023438 5.0625 -4.171875 C 5.382812 -4.316406 5.6875 -4.515625 5.96875 -4.765625 C 6.007812 -4.796875 6.050781 -4.828125 6.09375 -4.859375 C 6.144531 -4.898438 6.179688 -4.910156 6.203125 -4.890625 Z M 2.234375 -5.4375 C 2.085938 -5.425781 1.941406 -5.332031 1.796875 -5.15625 C 1.660156 -4.976562 1.597656 -4.78125 1.609375 -4.5625 C 1.628906 -4.351562 1.789062 -4.175781 2.09375 -4.03125 C 2.332031 -3.90625 2.632812 -3.832031 3 -3.8125 C 3.03125 -4.332031 2.960938 -4.742188 2.796875 -5.046875 C 2.640625 -5.347656 2.453125 -5.476562 2.234375 -5.4375 Z M 1.59375 -1.171875 C 1.695312 -1.203125 1.859375 -1.335938 2.078125 -1.578125 C 2.304688 -1.828125 2.503906 -2.148438 2.671875 -2.546875 C 2.617188 -2.554688 2.554688 -2.5625 2.484375 -2.5625 C 2.410156 -2.570312 2.34375 -2.585938 2.28125 -2.609375 C 1.957031 -2.660156 1.679688 -2.765625 1.453125 -2.921875 C 1.234375 -3.078125 1.050781 -3.265625 0.90625 -3.484375 C 0.851562 -3.296875 0.804688 -3.113281 0.765625 -2.9375 C 0.734375 -2.757812 0.71875 -2.566406 0.71875 -2.359375 C 0.71875 -1.910156 0.769531 -1.59375 0.875 -1.40625 C 0.976562 -1.226562 1.097656 -1.132812 1.234375 -1.125 C 1.378906 -1.125 1.5 -1.140625 1.59375 -1.171875 Z M 1.59375 -1.171875 "/></g></g></g><g fill="#2a3d74" fill-opacity="1"><g transform="translate(150.591703, 133.911404)"><g><path d="M 2.21875 -5.953125 C 2.75 -5.960938 3.148438 -5.867188 3.421875 -5.671875 C 3.691406 -5.472656 3.882812 -5.253906 4 -5.015625 C 4.113281 -4.785156 4.175781 -4.601562 4.1875 -4.46875 C 4.1875 -4.382812 4.144531 -4.332031 4.0625 -4.3125 C 3.988281 -4.300781 3.882812 -4.28125 3.75 -4.25 C 3.613281 -4.226562 3.5 -4.203125 3.40625 -4.171875 C 3.320312 -4.160156 3.265625 -4.191406 3.234375 -4.265625 C 3.203125 -4.347656 3.125 -4.441406 3 -4.546875 C 2.875 -4.660156 2.664062 -4.71875 2.375 -4.71875 C 2.113281 -4.71875 1.875 -4.601562 1.65625 -4.375 C 1.4375 -4.144531 1.265625 -3.847656 1.140625 -3.484375 C 1.023438 -3.128906 0.957031 -2.753906 0.9375 -2.359375 C 0.925781 -2.054688 0.992188 -1.800781 1.140625 -1.59375 C 1.285156 -1.394531 1.476562 -1.296875 1.71875 -1.296875 C 2.082031 -1.296875 2.46875 -1.378906 2.875 -1.546875 C 3.289062 -1.722656 3.6875 -1.929688 4.0625 -2.171875 C 4.445312 -2.410156 4.785156 -2.648438 5.078125 -2.890625 C 5.367188 -3.140625 5.570312 -3.335938 5.6875 -3.484375 C 5.769531 -3.566406 5.847656 -3.566406 5.921875 -3.484375 C 6.097656 -3.285156 6.234375 -3.132812 6.328125 -3.03125 C 6.429688 -2.9375 6.507812 -2.863281 6.5625 -2.8125 C 6.601562 -2.769531 6.609375 -2.703125 6.578125 -2.609375 C 6.523438 -2.515625 6.367188 -2.328125 6.109375 -2.046875 C 5.847656 -1.773438 5.5 -1.476562 5.0625 -1.15625 C 4.632812 -0.84375 4.132812 -0.570312 3.5625 -0.34375 C 2.988281 -0.125 2.367188 -0.015625 1.703125 -0.015625 C 1.128906 -0.015625 0.625 -0.226562 0.1875 -0.65625 C -0.25 -1.082031 -0.460938 -1.703125 -0.453125 -2.515625 C -0.453125 -3.160156 -0.316406 -3.742188 -0.046875 -4.265625 C 0.222656 -4.785156 0.5625 -5.195312 0.96875 -5.5 C 1.382812 -5.800781 1.800781 -5.953125 2.21875 -5.953125 Z M 2.21875 -5.953125 "/></g></g></g><g fill="#2a3d74" fill-opacity="1"><g transform="translate(156.372323, 133.864448)"><g><path d="M 4.1875 -1.359375 C 4.28125 -1.285156 4.300781 -1.207031 4.25 -1.125 C 4.019531 -0.75 3.703125 -0.4375 3.296875 -0.1875 C 2.898438 0.0625 2.472656 0.207031 2.015625 0.25 C 1.554688 0.289062 1.117188 0.175781 0.703125 -0.09375 C 0.328125 -0.351562 0.0351562 -0.703125 -0.171875 -1.140625 C -0.378906 -1.585938 -0.421875 -2.257812 -0.296875 -3.15625 C -0.191406 -3.882812 0.03125 -4.460938 0.375 -4.890625 C 0.71875 -5.328125 1.113281 -5.632812 1.5625 -5.8125 C 2.007812 -5.988281 2.4375 -6.050781 2.84375 -6 C 3.132812 -5.976562 3.410156 -5.878906 3.671875 -5.703125 C 3.941406 -5.535156 4.128906 -5.28125 4.234375 -4.9375 C 4.335938 -4.601562 4.28125 -4.175781 4.0625 -3.65625 C 3.925781 -3.363281 3.679688 -3.070312 3.328125 -2.78125 C 2.984375 -2.5 2.613281 -2.265625 2.21875 -2.078125 C 1.820312 -1.890625 1.476562 -1.78125 1.1875 -1.75 C 1.21875 -1.582031 1.273438 -1.425781 1.359375 -1.28125 C 1.453125 -1.144531 1.582031 -1.035156 1.75 -0.953125 C 1.976562 -0.847656 2.25 -0.867188 2.5625 -1.015625 C 2.875 -1.171875 3.160156 -1.390625 3.421875 -1.671875 C 3.503906 -1.753906 3.578125 -1.769531 3.640625 -1.71875 Z M 1.203125 -3.1875 C 1.203125 -3.164062 1.195312 -3.132812 1.1875 -3.09375 C 1.1875 -3.050781 1.1875 -3.007812 1.1875 -2.96875 C 1.664062 -3.101562 2.070312 -3.300781 2.40625 -3.5625 C 2.75 -3.820312 2.984375 -4.070312 3.109375 -4.3125 C 3.242188 -4.5625 3.238281 -4.738281 3.09375 -4.84375 C 2.957031 -4.945312 2.75 -4.953125 2.46875 -4.859375 C 2.1875 -4.765625 1.921875 -4.578125 1.671875 -4.296875 C 1.421875 -4.015625 1.265625 -3.644531 1.203125 -3.1875 Z M 2.40625 -7.984375 C 2.332031 -8.023438 2.316406 -8.078125 2.359375 -8.140625 L 3.578125 -10.015625 C 3.609375 -10.085938 3.660156 -10.09375 3.734375 -10.03125 C 3.828125 -9.976562 3.953125 -9.894531 4.109375 -9.78125 C 4.273438 -9.675781 4.414062 -9.585938 4.53125 -9.515625 C 4.59375 -9.460938 4.597656 -9.410156 4.546875 -9.359375 C 4.453125 -9.210938 4.328125 -9.019531 4.171875 -8.78125 C 4.015625 -8.539062 3.863281 -8.304688 3.71875 -8.078125 C 3.570312 -7.847656 3.445312 -7.648438 3.34375 -7.484375 C 3.300781 -7.390625 3.242188 -7.375 3.171875 -7.4375 Z M 2.40625 -7.984375 "/></g></g></g><g fill="#2a3d74" fill-opacity="1"><g transform="translate(161.667605, 133.99446)"><g><path d="M 10.078125 -2.15625 C 10.140625 -2.070312 10.132812 -1.988281 10.0625 -1.90625 C 9.644531 -1.445312 9.164062 -1.023438 8.625 -0.640625 C 8.09375 -0.265625 7.5625 0.03125 7.03125 0.25 C 6.5 0.46875 6.007812 0.550781 5.5625 0.5 C 5.070312 0.445312 4.710938 0.242188 4.484375 -0.109375 C 4.253906 -0.472656 4.113281 -0.890625 4.0625 -1.359375 C 3.726562 -0.941406 3.335938 -0.578125 2.890625 -0.265625 C 2.441406 0.046875 1.984375 0.179688 1.515625 0.140625 C 0.941406 0.078125 0.457031 -0.1875 0.0625 -0.65625 C -0.332031 -1.125 -0.484375 -1.769531 -0.390625 -2.59375 C -0.316406 -3.21875 -0.101562 -3.738281 0.25 -4.15625 C 0.613281 -4.582031 1.03125 -4.890625 1.5 -5.078125 C 1.976562 -5.273438 2.414062 -5.347656 2.8125 -5.296875 C 3.164062 -5.253906 3.476562 -5.148438 3.75 -4.984375 C 4.019531 -4.828125 4.242188 -4.644531 4.421875 -4.4375 C 4.503906 -4.738281 4.578125 -4.988281 4.640625 -5.1875 C 4.710938 -5.394531 4.757812 -5.546875 4.78125 -5.640625 C 4.789062 -5.671875 4.828125 -5.695312 4.890625 -5.71875 C 4.984375 -5.738281 5.148438 -5.738281 5.390625 -5.71875 C 5.628906 -5.707031 5.875 -5.65625 6.125 -5.5625 C 6.21875 -5.53125 6.25 -5.476562 6.21875 -5.40625 C 6.164062 -5.28125 6.101562 -5.097656 6.03125 -4.859375 C 5.96875 -4.617188 5.898438 -4.363281 5.828125 -4.09375 C 5.773438 -3.90625 5.707031 -3.632812 5.625 -3.28125 C 5.539062 -2.925781 5.484375 -2.554688 5.453125 -2.171875 C 5.421875 -1.796875 5.429688 -1.472656 5.484375 -1.203125 C 5.546875 -0.929688 5.675781 -0.785156 5.875 -0.765625 C 6.09375 -0.742188 6.363281 -0.816406 6.6875 -0.984375 C 7.019531 -1.160156 7.351562 -1.375 7.6875 -1.625 C 8.03125 -1.882812 8.335938 -2.140625 8.609375 -2.390625 C 8.878906 -2.640625 9.082031 -2.828125 9.21875 -2.953125 C 9.3125 -3.035156 9.398438 -3.03125 9.484375 -2.9375 Z M 1.671875 -1.15625 C 1.804688 -1.144531 2.003906 -1.234375 2.265625 -1.421875 C 2.523438 -1.617188 2.8125 -1.890625 3.125 -2.234375 C 3.4375 -2.578125 3.71875 -2.972656 3.96875 -3.421875 C 3.851562 -3.597656 3.703125 -3.753906 3.515625 -3.890625 C 3.335938 -4.023438 3.125 -4.101562 2.875 -4.125 C 2.601562 -4.15625 2.332031 -4.097656 2.0625 -3.953125 C 1.789062 -3.804688 1.554688 -3.585938 1.359375 -3.296875 C 1.160156 -3.003906 1.035156 -2.664062 0.984375 -2.28125 C 0.953125 -1.988281 1 -1.734375 1.125 -1.515625 C 1.25 -1.296875 1.429688 -1.175781 1.671875 -1.15625 Z M 1.671875 -1.15625 "/></g></g></g><g fill="#2a3d74" fill-opacity="1"><g transform="translate(170.335592, 134.790016)"><g><path d="M 4.71875 -4.578125 C 4.925781 -4.523438 5.128906 -4.398438 5.328125 -4.203125 C 5.523438 -4.015625 5.671875 -3.742188 5.765625 -3.390625 C 5.859375 -3.035156 5.835938 -2.601562 5.703125 -2.09375 C 5.535156 -1.3125 5.359375 -0.65625 5.171875 -0.125 C 4.992188 0.40625 4.867188 0.679688 4.796875 0.703125 C 4.722656 0.710938 4.585938 0.6875 4.390625 0.625 C 4.191406 0.5625 4.003906 0.476562 3.828125 0.375 C 3.660156 0.28125 3.582031 0.1875 3.59375 0.09375 C 3.601562 0.0390625 3.644531 -0.101562 3.71875 -0.34375 C 3.800781 -0.59375 3.894531 -0.878906 4 -1.203125 C 4.113281 -1.535156 4.210938 -1.863281 4.296875 -2.1875 C 4.378906 -2.519531 4.425781 -2.804688 4.4375 -3.046875 C 4.457031 -3.296875 4.421875 -3.4375 4.328125 -3.46875 C 4.203125 -3.53125 3.96875 -3.445312 3.625 -3.21875 C 3.28125 -3 2.910156 -2.703125 2.515625 -2.328125 C 2.117188 -1.953125 1.742188 -1.554688 1.390625 -1.140625 C 1.035156 -0.722656 0.773438 -0.34375 0.609375 0 C 0.585938 0.0507812 0.550781 0.0625 0.5 0.03125 C 0.5 0.03125 0.40625 0.0195312 0.21875 0 C 0.03125 -0.0195312 -0.160156 -0.0625 -0.359375 -0.125 C -0.566406 -0.195312 -0.671875 -0.289062 -0.671875 -0.40625 C -0.566406 -0.9375 -0.425781 -1.492188 -0.25 -2.078125 C -0.0703125 -2.671875 0.109375 -3.238281 0.296875 -3.78125 C 0.492188 -4.332031 0.648438 -4.796875 0.765625 -5.171875 C 0.921875 -5.640625 1.054688 -5.910156 1.171875 -5.984375 C 1.296875 -6.054688 1.421875 -6.082031 1.546875 -6.0625 C 1.992188 -5.988281 2.265625 -5.910156 2.359375 -5.828125 C 2.460938 -5.753906 2.46875 -5.59375 2.375 -5.34375 C 2.25 -5.007812 2.117188 -4.644531 1.984375 -4.25 C 1.847656 -3.863281 1.71875 -3.484375 1.59375 -3.109375 C 1.851562 -3.429688 2.164062 -3.722656 2.53125 -3.984375 C 2.90625 -4.242188 3.285156 -4.429688 3.671875 -4.546875 C 4.054688 -4.671875 4.40625 -4.679688 4.71875 -4.578125 Z M 4.71875 -4.578125 "/></g></g></g><g fill="#2a3d74" fill-opacity="1"><g transform="translate(176.910883, 135.77353)"><g><path d="M 7.5625 -2.5 C 7.625 -2.425781 7.601562 -2.347656 7.5 -2.265625 C 7.289062 -2.097656 6.929688 -1.925781 6.421875 -1.75 C 5.921875 -1.570312 5.296875 -1.503906 4.546875 -1.546875 C 4.328125 -1.171875 4.046875 -0.804688 3.703125 -0.453125 C 3.359375 -0.109375 2.960938 0.132812 2.515625 0.28125 C 2.066406 0.425781 1.578125 0.378906 1.046875 0.140625 C 0.628906 -0.0351562 0.328125 -0.265625 0.140625 -0.546875 C -0.0351562 -0.835938 -0.128906 -1.148438 -0.140625 -1.484375 C -0.148438 -1.828125 -0.113281 -2.148438 -0.03125 -2.453125 C 0.0507812 -2.753906 0.140625 -3.007812 0.234375 -3.21875 C 0.378906 -3.53125 0.613281 -3.914062 0.9375 -4.375 C 1.269531 -4.832031 1.726562 -5.210938 2.3125 -5.515625 C 2.46875 -5.585938 2.597656 -5.632812 2.703125 -5.65625 C 2.816406 -5.6875 2.910156 -5.703125 2.984375 -5.703125 C 3.210938 -5.734375 3.4375 -5.710938 3.65625 -5.640625 C 3.875 -5.578125 3.984375 -5.546875 3.984375 -5.546875 C 3.984375 -5.546875 4.0625 -5.503906 4.21875 -5.421875 C 4.382812 -5.335938 4.554688 -5.191406 4.734375 -4.984375 C 4.910156 -4.773438 5.039062 -4.488281 5.125 -4.125 C 5.21875 -3.757812 5.191406 -3.300781 5.046875 -2.75 C 5.296875 -2.707031 5.59375 -2.71875 5.9375 -2.78125 C 6.289062 -2.84375 6.628906 -2.960938 6.953125 -3.140625 C 7.003906 -3.160156 7.054688 -3.179688 7.109375 -3.203125 C 7.160156 -3.222656 7.195312 -3.21875 7.21875 -3.1875 Z M 3.5 -4.703125 C 3.351562 -4.722656 3.191406 -4.664062 3.015625 -4.53125 C 2.835938 -4.40625 2.726562 -4.238281 2.6875 -4.03125 C 2.65625 -3.820312 2.765625 -3.601562 3.015625 -3.375 C 3.222656 -3.195312 3.492188 -3.054688 3.828125 -2.953125 C 3.992188 -3.453125 4.035156 -3.863281 3.953125 -4.1875 C 3.867188 -4.507812 3.71875 -4.679688 3.5 -4.703125 Z M 1.828125 -0.734375 C 1.941406 -0.742188 2.132812 -0.835938 2.40625 -1.015625 C 2.6875 -1.203125 2.957031 -1.46875 3.21875 -1.8125 C 3.164062 -1.832031 3.101562 -1.851562 3.03125 -1.875 C 2.96875 -1.90625 2.90625 -1.9375 2.84375 -1.96875 C 2.550781 -2.09375 2.3125 -2.257812 2.125 -2.46875 C 1.945312 -2.675781 1.820312 -2.898438 1.75 -3.140625 C 1.644531 -2.984375 1.550781 -2.820312 1.46875 -2.65625 C 1.394531 -2.488281 1.332031 -2.300781 1.28125 -2.09375 C 1.164062 -1.664062 1.132812 -1.347656 1.1875 -1.140625 C 1.25 -0.941406 1.347656 -0.820312 1.484375 -0.78125 C 1.617188 -0.75 1.734375 -0.734375 1.828125 -0.734375 Z M 1.828125 -0.734375 "/></g></g></g><g fill="#2a3d74" fill-opacity="1"><g transform="translate(182.708634, 136.923541)"><g/></g></g><g fill="#2a3d74" fill-opacity="1"><g transform="translate(188.162168, 138.203243)"><g><path d="M 10.8125 -0.203125 C 10.914062 -0.0976562 10.914062 0 10.8125 0.09375 C 10.675781 0.238281 10.460938 0.441406 10.171875 0.703125 C 9.890625 0.960938 9.546875 1.210938 9.140625 1.453125 C 8.734375 1.691406 8.285156 1.867188 7.796875 1.984375 C 7.316406 2.097656 6.8125 2.070312 6.28125 1.90625 C 5.738281 1.738281 5.300781 1.429688 4.96875 0.984375 C 4.644531 0.535156 4.460938 0.0078125 4.421875 -0.59375 C 3.984375 -0.238281 3.503906 0.0546875 2.984375 0.296875 C 2.460938 0.546875 1.953125 0.59375 1.453125 0.4375 C 1.085938 0.320312 0.765625 0.128906 0.484375 -0.140625 C 0.210938 -0.421875 0.0390625 -0.773438 -0.03125 -1.203125 C -0.101562 -1.640625 0.00390625 -2.148438 0.296875 -2.734375 C 0.617188 -3.378906 0.976562 -3.851562 1.375 -4.15625 C 1.78125 -4.46875 2.195312 -4.648438 2.625 -4.703125 C 3.050781 -4.765625 3.460938 -4.722656 3.859375 -4.578125 C 4.117188 -4.492188 4.335938 -4.367188 4.515625 -4.203125 C 4.609375 -4.523438 4.722656 -4.851562 4.859375 -5.1875 C 5.003906 -5.519531 5.164062 -5.882812 5.34375 -6.28125 C 5.914062 -7.476562 6.507812 -8.398438 7.125 -9.046875 C 7.75 -9.691406 8.34375 -10.113281 8.90625 -10.3125 C 9.476562 -10.507812 10 -10.535156 10.46875 -10.390625 C 10.945312 -10.242188 11.328125 -9.988281 11.609375 -9.625 C 11.785156 -9.394531 11.847656 -9.078125 11.796875 -8.671875 C 11.742188 -8.273438 11.523438 -7.753906 11.140625 -7.109375 C 10.765625 -6.472656 10.144531 -5.710938 9.28125 -4.828125 C 8.425781 -3.941406 7.257812 -2.910156 5.78125 -1.734375 C 5.8125 -1.097656 5.859375 -0.5625 5.921875 -0.125 C 5.992188 0.300781 6.242188 0.582031 6.671875 0.71875 C 6.960938 0.800781 7.269531 0.789062 7.59375 0.6875 C 7.914062 0.582031 8.234375 0.429688 8.546875 0.234375 C 8.859375 0.0351562 9.140625 -0.160156 9.390625 -0.359375 C 9.640625 -0.566406 9.835938 -0.738281 9.984375 -0.875 C 10.015625 -0.914062 10.0625 -0.929688 10.125 -0.921875 C 10.195312 -0.910156 10.253906 -0.890625 10.296875 -0.859375 Z M 6.6875 -5.75 C 6.519531 -5.445312 6.375 -5.117188 6.25 -4.765625 C 6.132812 -4.421875 6.03125 -4.066406 5.9375 -3.703125 C 7.6875 -5.359375 8.929688 -6.628906 9.671875 -7.515625 C 10.410156 -8.410156 10.695312 -8.972656 10.53125 -9.203125 C 10.46875 -9.285156 10.335938 -9.34375 10.140625 -9.375 C 9.941406 -9.40625 9.675781 -9.332031 9.34375 -9.15625 C 9.019531 -8.976562 8.632812 -8.625 8.1875 -8.09375 C 7.75 -7.5625 7.25 -6.78125 6.6875 -5.75 Z M 1.890625 -0.75 C 2.066406 -0.738281 2.378906 -0.851562 2.828125 -1.09375 C 3.285156 -1.34375 3.753906 -1.695312 4.234375 -2.15625 C 4.242188 -2.21875 4.25 -2.28125 4.25 -2.34375 C 4.25 -2.414062 4.253906 -2.492188 4.265625 -2.578125 C 4.242188 -2.785156 4.1875 -2.960938 4.09375 -3.109375 C 4 -3.265625 3.859375 -3.375 3.671875 -3.4375 C 3.335938 -3.539062 2.960938 -3.476562 2.546875 -3.25 C 2.140625 -3.03125 1.769531 -2.617188 1.4375 -2.015625 C 1.21875 -1.597656 1.179688 -1.289062 1.328125 -1.09375 C 1.472656 -0.894531 1.660156 -0.78125 1.890625 -0.75 Z M 1.890625 -0.75 "/></g></g></g><g fill="#2a3d74" fill-opacity="1"><g transform="translate(196.853965, 140.91653)"><g><path d="M 4.390625 0.03125 C 4.453125 0.101562 4.4375 0.191406 4.34375 0.296875 C 4.03125 0.546875 3.640625 0.726562 3.171875 0.84375 C 2.710938 0.957031 2.257812 0.960938 1.8125 0.859375 C 1.363281 0.753906 0.992188 0.507812 0.703125 0.125 C 0.429688 -0.226562 0.265625 -0.644531 0.203125 -1.125 C 0.148438 -1.601562 0.316406 -2.253906 0.703125 -3.078125 C 1.023438 -3.710938 1.414062 -4.179688 1.875 -4.484375 C 2.34375 -4.796875 2.816406 -4.96875 3.296875 -5 C 3.773438 -5.03125 4.195312 -4.957031 4.5625 -4.78125 C 4.832031 -4.664062 5.066406 -4.484375 5.265625 -4.234375 C 5.460938 -3.992188 5.554688 -3.703125 5.546875 -3.359375 C 5.535156 -3.015625 5.347656 -2.628906 4.984375 -2.203125 C 4.742188 -1.953125 4.414062 -1.742188 4 -1.578125 C 3.59375 -1.421875 3.175781 -1.316406 2.75 -1.265625 C 2.320312 -1.210938 1.960938 -1.21875 1.671875 -1.28125 C 1.648438 -1.101562 1.65625 -0.929688 1.6875 -0.765625 C 1.71875 -0.609375 1.804688 -0.46875 1.953125 -0.34375 C 2.140625 -0.175781 2.398438 -0.117188 2.734375 -0.171875 C 3.066406 -0.222656 3.40625 -0.335938 3.75 -0.515625 C 3.832031 -0.566406 3.90625 -0.550781 3.96875 -0.46875 Z M 4.4375 -3.625 C 4.332031 -3.75 4.132812 -3.804688 3.84375 -3.796875 C 3.550781 -3.796875 3.238281 -3.703125 2.90625 -3.515625 C 2.582031 -3.328125 2.328125 -3.03125 2.140625 -2.625 C 2.117188 -2.59375 2.097656 -2.5625 2.078125 -2.53125 C 2.066406 -2.5 2.054688 -2.460938 2.046875 -2.421875 C 2.546875 -2.398438 2.992188 -2.457031 3.390625 -2.59375 C 3.796875 -2.726562 4.097656 -2.894531 4.296875 -3.09375 C 4.492188 -3.300781 4.539062 -3.476562 4.4375 -3.625 Z M 4.4375 -3.625 "/></g></g></g><g fill="#2a3d74" fill-opacity="1"><g transform="translate(201.83476, 142.74177)"><g/></g></g><g fill="#2a3d74" fill-opacity="1"><g transform="translate(207.071789, 144.917176)"><g><path d="M 7.953125 -0.609375 C 7.992188 -0.523438 7.957031 -0.453125 7.84375 -0.390625 C 7.582031 -0.273438 7.1875 -0.191406 6.65625 -0.140625 C 6.125 -0.0859375 5.503906 -0.175781 4.796875 -0.40625 C 4.492188 -0.0820312 4.128906 0.203125 3.703125 0.453125 C 3.285156 0.703125 2.84375 0.84375 2.375 0.875 C 1.90625 0.90625 1.441406 0.742188 0.984375 0.390625 C 0.617188 0.109375 0.382812 -0.1875 0.28125 -0.5 C 0.175781 -0.820312 0.15625 -1.144531 0.21875 -1.46875 C 0.28125 -1.800781 0.390625 -2.101562 0.546875 -2.375 C 0.703125 -2.65625 0.847656 -2.882812 0.984375 -3.0625 C 1.222656 -3.332031 1.554688 -3.644531 1.984375 -4 C 2.410156 -4.363281 2.941406 -4.628906 3.578125 -4.796875 C 3.742188 -4.828125 3.878906 -4.835938 3.984375 -4.828125 C 4.109375 -4.835938 4.207031 -4.835938 4.28125 -4.828125 C 4.507812 -4.804688 4.71875 -4.734375 4.90625 -4.609375 C 5.101562 -4.484375 5.203125 -4.421875 5.203125 -4.421875 C 5.203125 -4.421875 5.269531 -4.359375 5.40625 -4.234375 C 5.539062 -4.117188 5.671875 -3.9375 5.796875 -3.6875 C 5.929688 -3.445312 5.992188 -3.140625 5.984375 -2.765625 C 5.972656 -2.398438 5.832031 -1.96875 5.5625 -1.46875 C 5.800781 -1.351562 6.09375 -1.28125 6.4375 -1.25 C 6.789062 -1.226562 7.148438 -1.265625 7.515625 -1.359375 C 7.566406 -1.378906 7.617188 -1.390625 7.671875 -1.390625 C 7.734375 -1.398438 7.769531 -1.390625 7.78125 -1.359375 Z M 4.53125 -3.71875 C 4.394531 -3.78125 4.222656 -3.769531 4.015625 -3.6875 C 3.816406 -3.601562 3.671875 -3.460938 3.578125 -3.265625 C 3.492188 -3.066406 3.546875 -2.828125 3.734375 -2.546875 C 3.898438 -2.328125 4.132812 -2.125 4.4375 -1.9375 C 4.71875 -2.382812 4.859375 -2.773438 4.859375 -3.109375 C 4.859375 -3.441406 4.75 -3.644531 4.53125 -3.71875 Z M 1.953125 -0.265625 C 2.066406 -0.253906 2.273438 -0.300781 2.578125 -0.40625 C 2.890625 -0.507812 3.21875 -0.703125 3.5625 -0.984375 C 3.507812 -1.015625 3.453125 -1.050781 3.390625 -1.09375 C 3.335938 -1.132812 3.285156 -1.175781 3.234375 -1.21875 C 2.972656 -1.40625 2.78125 -1.625 2.65625 -1.875 C 2.53125 -2.125 2.457031 -2.375 2.4375 -2.625 C 2.3125 -2.5 2.191406 -2.363281 2.078125 -2.21875 C 1.960938 -2.082031 1.851562 -1.921875 1.75 -1.734375 C 1.539062 -1.335938 1.4375 -1.03125 1.4375 -0.8125 C 1.4375 -0.601562 1.5 -0.46875 1.625 -0.40625 C 1.757812 -0.34375 1.867188 -0.296875 1.953125 -0.265625 Z M 1.953125 -0.265625 "/></g></g></g><g fill="#2a3d74" fill-opacity="1"><g transform="translate(212.411146, 147.418284)"><g><path d="M 5.71875 -3.765625 C 5.894531 -3.671875 6.097656 -3.535156 6.328125 -3.359375 C 6.554688 -3.179688 6.734375 -2.957031 6.859375 -2.6875 C 6.984375 -2.414062 7 -2.078125 6.90625 -1.671875 C 6.820312 -1.273438 6.566406 -0.800781 6.140625 -0.25 C 5.929688 0.0078125 5.648438 0.265625 5.296875 0.515625 C 4.953125 0.765625 4.566406 0.957031 4.140625 1.09375 C 3.722656 1.238281 3.296875 1.285156 2.859375 1.234375 C 2.421875 1.179688 2.003906 0.992188 1.609375 0.671875 C 1.296875 0.410156 1.085938 0.113281 0.984375 -0.21875 C 0.453125 0.488281 -0.078125 1.191406 -0.609375 1.890625 C -1.140625 2.597656 -1.617188 3.242188 -2.046875 3.828125 C -2.484375 4.410156 -2.832031 4.875 -3.09375 5.21875 C -3.363281 5.570312 -3.5 5.75 -3.5 5.75 C -3.5 5.75 -3.578125 5.703125 -3.734375 5.609375 C -3.898438 5.523438 -4.0625 5.421875 -4.21875 5.296875 C -4.382812 5.179688 -4.460938 5.0625 -4.453125 4.9375 C -4.304688 4.707031 -4.050781 4.335938 -3.6875 3.828125 C -3.332031 3.316406 -2.910156 2.726562 -2.421875 2.0625 C -1.941406 1.394531 -1.441406 0.703125 -0.921875 -0.015625 C -0.398438 -0.734375 0.09375 -1.414062 0.5625 -2.0625 C 1.039062 -2.707031 1.453125 -3.265625 1.796875 -3.734375 C 2.148438 -4.203125 2.394531 -4.515625 2.53125 -4.671875 C 2.84375 -5.054688 3.0625 -5.257812 3.1875 -5.28125 C 3.3125 -5.3125 3.425781 -5.300781 3.53125 -5.25 C 3.9375 -5.019531 4.171875 -4.851562 4.234375 -4.75 C 4.304688 -4.644531 4.253906 -4.492188 4.078125 -4.296875 C 4.046875 -4.265625 4.003906 -4.21875 3.953125 -4.15625 C 3.910156 -4.09375 3.863281 -4.023438 3.8125 -3.953125 C 4.175781 -4.023438 4.535156 -4.046875 4.890625 -4.015625 C 5.242188 -3.984375 5.519531 -3.898438 5.71875 -3.765625 Z M 5.15625 -1.203125 C 5.550781 -1.671875 5.691406 -2.0625 5.578125 -2.375 C 5.460938 -2.695312 5.253906 -2.878906 4.953125 -2.921875 C 4.804688 -2.953125 4.628906 -2.941406 4.421875 -2.890625 C 4.210938 -2.847656 3.984375 -2.773438 3.734375 -2.671875 C 3.566406 -2.554688 3.367188 -2.398438 3.140625 -2.203125 C 2.921875 -2.003906 2.710938 -1.738281 2.515625 -1.40625 C 2.265625 -1.007812 2.148438 -0.710938 2.171875 -0.515625 C 2.191406 -0.328125 2.269531 -0.203125 2.40625 -0.140625 C 2.539062 -0.0859375 2.65625 -0.0390625 2.75 0 C 2.863281 0 3.050781 -0.0195312 3.3125 -0.0625 C 3.582031 -0.113281 3.882812 -0.222656 4.21875 -0.390625 C 4.550781 -0.566406 4.863281 -0.835938 5.15625 -1.203125 Z M 5.15625 -1.203125 "/></g></g></g><g fill="#2a3d74" fill-opacity="1"><g transform="translate(218.012668, 150.384932)"><g><path d="M 4.96875 -3.953125 C 5.425781 -3.679688 5.71875 -3.390625 5.84375 -3.078125 C 5.976562 -2.773438 6.035156 -2.492188 6.015625 -2.234375 C 5.992188 -1.984375 5.945312 -1.796875 5.875 -1.671875 C 5.832031 -1.609375 5.773438 -1.585938 5.703125 -1.609375 C 5.640625 -1.628906 5.539062 -1.660156 5.40625 -1.703125 C 5.269531 -1.753906 5.15625 -1.789062 5.0625 -1.8125 C 4.988281 -1.84375 4.957031 -1.898438 4.96875 -1.984375 C 4.976562 -2.066406 4.957031 -2.1875 4.90625 -2.34375 C 4.863281 -2.507812 4.71875 -2.671875 4.46875 -2.828125 C 4.238281 -2.953125 3.972656 -2.972656 3.671875 -2.890625 C 3.367188 -2.804688 3.070312 -2.644531 2.78125 -2.40625 C 2.488281 -2.164062 2.238281 -1.878906 2.03125 -1.546875 C 1.863281 -1.285156 1.789062 -1.03125 1.8125 -0.78125 C 1.832031 -0.53125 1.945312 -0.347656 2.15625 -0.234375 C 2.46875 -0.046875 2.84375 0.078125 3.28125 0.140625 C 3.71875 0.210938 4.160156 0.242188 4.609375 0.234375 C 5.054688 0.222656 5.46875 0.191406 5.84375 0.140625 C 6.226562 0.0859375 6.503906 0.0234375 6.671875 -0.046875 C 6.785156 -0.078125 6.851562 -0.0351562 6.875 0.078125 C 6.925781 0.328125 6.96875 0.519531 7 0.65625 C 7.03125 0.789062 7.050781 0.894531 7.0625 0.96875 C 7.082031 1.019531 7.050781 1.082031 6.96875 1.15625 C 6.882812 1.207031 6.660156 1.285156 6.296875 1.390625 C 5.929688 1.492188 5.476562 1.566406 4.9375 1.609375 C 4.40625 1.660156 3.835938 1.632812 3.234375 1.53125 C 2.628906 1.425781 2.039062 1.203125 1.46875 0.859375 C 0.976562 0.554688 0.65625 0.113281 0.5 -0.46875 C 0.34375 -1.050781 0.476562 -1.691406 0.90625 -2.390625 C 1.238281 -2.941406 1.65625 -3.367188 2.15625 -3.671875 C 2.65625 -3.984375 3.15625 -4.160156 3.65625 -4.203125 C 4.164062 -4.253906 4.601562 -4.171875 4.96875 -3.953125 Z M 4.96875 -3.953125 "/></g></g></g><g fill="#2a3d74" fill-opacity="1"><g transform="translate(223.029896, 153.377471)"><g><path d="M 3.0625 -4.125 C 3.269531 -4.007812 3.476562 -3.875 3.6875 -3.71875 C 3.894531 -3.5625 3.960938 -3.421875 3.890625 -3.296875 C 3.859375 -3.242188 3.734375 -3.082031 3.515625 -2.8125 C 3.304688 -2.550781 3.046875 -2.238281 2.734375 -1.875 C 2.421875 -1.519531 2.113281 -1.164062 1.8125 -0.8125 C 1.507812 -0.46875 1.25 -0.1875 1.03125 0.03125 C 0.8125 0.257812 0.6875 0.378906 0.65625 0.390625 C 0.601562 0.378906 0.492188 0.316406 0.328125 0.203125 C 0.160156 0.0976562 0.0234375 -0.0195312 -0.078125 -0.15625 C -0.191406 -0.300781 -0.21875 -0.421875 -0.15625 -0.515625 C -0.0820312 -0.628906 0.046875 -0.800781 0.234375 -1.03125 C 0.421875 -1.269531 0.628906 -1.546875 0.859375 -1.859375 C 1.097656 -2.179688 1.328125 -2.484375 1.546875 -2.765625 C 1.765625 -3.046875 1.945312 -3.28125 2.09375 -3.46875 C 2.25 -3.664062 2.328125 -3.765625 2.328125 -3.765625 C 2.328125 -3.765625 2.359375 -3.804688 2.421875 -3.890625 C 2.492188 -3.972656 2.585938 -4.046875 2.703125 -4.109375 C 2.828125 -4.171875 2.945312 -4.175781 3.0625 -4.125 Z M 4.375 -4.34375 C 4.21875 -4.363281 4.066406 -4.429688 3.921875 -4.546875 C 3.773438 -4.671875 3.675781 -4.828125 3.625 -5.015625 C 3.570312 -5.203125 3.617188 -5.394531 3.765625 -5.59375 C 3.835938 -5.675781 3.929688 -5.757812 4.046875 -5.84375 C 4.171875 -5.925781 4.320312 -5.957031 4.5 -5.9375 C 4.675781 -5.925781 4.84375 -5.800781 5 -5.5625 C 5.164062 -5.363281 5.210938 -5.164062 5.140625 -4.96875 C 5.066406 -4.78125 4.945312 -4.625 4.78125 -4.5 C 4.613281 -4.382812 4.476562 -4.332031 4.375 -4.34375 Z M 4.375 -4.34375 "/></g></g></g><g fill="#2a3d74" fill-opacity="1"><g transform="translate(225.25853, 154.756836)"><g><path d="M 7.953125 0.671875 C 7.972656 0.753906 7.921875 0.816406 7.796875 0.859375 C 7.535156 0.929688 7.132812 0.945312 6.59375 0.90625 C 6.0625 0.875 5.460938 0.691406 4.796875 0.359375 C 4.441406 0.628906 4.035156 0.851562 3.578125 1.03125 C 3.128906 1.207031 2.671875 1.273438 2.203125 1.234375 C 1.734375 1.203125 1.296875 0.972656 0.890625 0.546875 C 0.578125 0.210938 0.394531 -0.117188 0.34375 -0.453125 C 0.289062 -0.785156 0.320312 -1.109375 0.4375 -1.421875 C 0.5625 -1.742188 0.722656 -2.023438 0.921875 -2.265625 C 1.117188 -2.515625 1.304688 -2.71875 1.484375 -2.875 C 1.742188 -3.101562 2.113281 -3.359375 2.59375 -3.640625 C 3.070312 -3.929688 3.640625 -4.109375 4.296875 -4.171875 C 4.460938 -4.171875 4.597656 -4.15625 4.703125 -4.125 C 4.816406 -4.113281 4.910156 -4.101562 4.984375 -4.09375 C 5.203125 -4.03125 5.398438 -3.921875 5.578125 -3.765625 C 5.753906 -3.617188 5.84375 -3.546875 5.84375 -3.546875 C 5.84375 -3.546875 5.898438 -3.472656 6.015625 -3.328125 C 6.128906 -3.179688 6.226562 -2.976562 6.3125 -2.71875 C 6.394531 -2.46875 6.398438 -2.15625 6.328125 -1.78125 C 6.265625 -1.414062 6.0625 -1.007812 5.71875 -0.5625 C 5.9375 -0.425781 6.210938 -0.3125 6.546875 -0.21875 C 6.890625 -0.132812 7.253906 -0.109375 7.640625 -0.140625 C 7.691406 -0.148438 7.742188 -0.15625 7.796875 -0.15625 C 7.847656 -0.15625 7.878906 -0.140625 7.890625 -0.109375 Z M 5.0625 -2.953125 C 4.9375 -3.035156 4.765625 -3.046875 4.546875 -2.984375 C 4.328125 -2.929688 4.160156 -2.816406 4.046875 -2.640625 C 3.929688 -2.472656 3.945312 -2.234375 4.09375 -1.921875 C 4.21875 -1.679688 4.410156 -1.441406 4.671875 -1.203125 C 5.023438 -1.609375 5.226562 -1.972656 5.28125 -2.296875 C 5.332031 -2.628906 5.257812 -2.847656 5.0625 -2.953125 Z M 1.984375 0.046875 C 2.085938 0.078125 2.296875 0.0625 2.609375 0 C 2.929688 -0.0507812 3.285156 -0.1875 3.671875 -0.40625 C 3.628906 -0.445312 3.582031 -0.492188 3.53125 -0.546875 C 3.476562 -0.597656 3.429688 -0.644531 3.390625 -0.6875 C 3.160156 -0.914062 3.003906 -1.160156 2.921875 -1.421875 C 2.847656 -1.691406 2.820312 -1.957031 2.84375 -2.21875 C 2.6875 -2.101562 2.535156 -1.984375 2.390625 -1.859375 C 2.253906 -1.742188 2.128906 -1.601562 2.015625 -1.4375 C 1.734375 -1.082031 1.578125 -0.800781 1.546875 -0.59375 C 1.523438 -0.382812 1.566406 -0.234375 1.671875 -0.140625 C 1.785156 -0.046875 1.890625 0.015625 1.984375 0.046875 Z M 1.984375 0.046875 "/></g></g></g><g fill="#2a3d74" fill-opacity="1"><g transform="translate(230.128937, 158.068195)"><g><path d="M 6.34375 -1.75 C 6.5 -1.613281 6.617188 -1.410156 6.703125 -1.140625 C 6.785156 -0.867188 6.78125 -0.554688 6.6875 -0.203125 C 6.601562 0.140625 6.378906 0.507812 6.015625 0.90625 C 5.492188 1.5 5.019531 1.984375 4.59375 2.359375 C 4.175781 2.742188 3.9375 2.925781 3.875 2.90625 C 3.800781 2.882812 3.691406 2.796875 3.546875 2.640625 C 3.398438 2.492188 3.273438 2.335938 3.171875 2.171875 C 3.066406 2.003906 3.046875 1.882812 3.109375 1.8125 C 3.140625 1.769531 3.25 1.660156 3.4375 1.484375 C 3.625 1.304688 3.84375 1.097656 4.09375 0.859375 C 4.351562 0.617188 4.597656 0.375 4.828125 0.125 C 5.054688 -0.113281 5.234375 -0.335938 5.359375 -0.546875 C 5.492188 -0.765625 5.53125 -0.910156 5.46875 -0.984375 C 5.382812 -1.085938 5.140625 -1.117188 4.734375 -1.078125 C 4.328125 -1.046875 3.859375 -0.960938 3.328125 -0.828125 C 2.796875 -0.691406 2.273438 -0.523438 1.765625 -0.328125 C 1.253906 -0.128906 0.84375 0.0703125 0.53125 0.28125 C 0.488281 0.320312 0.457031 0.316406 0.4375 0.265625 C 0.4375 0.265625 0.359375 0.210938 0.203125 0.109375 C 0.046875 0.00390625 -0.101562 -0.125 -0.25 -0.28125 C -0.394531 -0.445312 -0.445312 -0.578125 -0.40625 -0.671875 C -0.0507812 -1.097656 0.335938 -1.523438 0.765625 -1.953125 C 1.203125 -2.378906 1.632812 -2.785156 2.0625 -3.171875 C 2.5 -3.566406 2.863281 -3.898438 3.15625 -4.171875 C 3.507812 -4.503906 3.753906 -4.671875 3.890625 -4.671875 C 4.023438 -4.679688 4.144531 -4.648438 4.25 -4.578125 C 4.613281 -4.296875 4.816406 -4.097656 4.859375 -3.984375 C 4.910156 -3.867188 4.84375 -3.726562 4.65625 -3.5625 C 4.382812 -3.332031 4.09375 -3.078125 3.78125 -2.796875 C 3.476562 -2.515625 3.179688 -2.238281 2.890625 -1.96875 C 3.273438 -2.125 3.691406 -2.222656 4.140625 -2.265625 C 4.597656 -2.316406 5.019531 -2.304688 5.40625 -2.234375 C 5.800781 -2.160156 6.113281 -2 6.34375 -1.75 Z M 6.34375 -1.75 "/></g></g></g><g fill="#2a3d74" fill-opacity="1"><g transform="translate(235.435786, 162.094767)"><g><path d="M 4.125 1.5 C 4.164062 1.59375 4.128906 1.664062 4.015625 1.71875 C 3.617188 1.851562 3.179688 1.898438 2.703125 1.859375 C 2.234375 1.816406 1.804688 1.671875 1.421875 1.421875 C 1.035156 1.171875 0.769531 0.816406 0.625 0.359375 C 0.476562 -0.078125 0.460938 -0.53125 0.578125 -1 C 0.691406 -1.46875 1.0625 -2.023438 1.6875 -2.671875 C 2.207031 -3.171875 2.738281 -3.484375 3.28125 -3.609375 C 3.820312 -3.742188 4.320312 -3.742188 4.78125 -3.609375 C 5.238281 -3.472656 5.609375 -3.265625 5.890625 -2.984375 C 6.117188 -2.785156 6.285156 -2.535156 6.390625 -2.234375 C 6.492188 -1.941406 6.484375 -1.628906 6.359375 -1.296875 C 6.234375 -0.972656 5.921875 -0.675781 5.421875 -0.40625 C 5.128906 -0.25 4.757812 -0.164062 4.3125 -0.15625 C 3.875 -0.144531 3.441406 -0.1875 3.015625 -0.28125 C 2.585938 -0.375 2.25 -0.5 2 -0.65625 C 1.914062 -0.488281 1.863281 -0.320312 1.84375 -0.15625 C 1.820312 0 1.863281 0.160156 1.96875 0.328125 C 2.070312 0.546875 2.289062 0.6875 2.625 0.75 C 2.957031 0.820312 3.320312 0.828125 3.71875 0.765625 C 3.8125 0.742188 3.867188 0.785156 3.890625 0.890625 Z M 5.375 -1.921875 C 5.332031 -2.078125 5.171875 -2.203125 4.890625 -2.296875 C 4.609375 -2.390625 4.285156 -2.40625 3.921875 -2.34375 C 3.554688 -2.28125 3.210938 -2.085938 2.890625 -1.765625 C 2.867188 -1.734375 2.84375 -1.707031 2.8125 -1.6875 C 2.789062 -1.664062 2.765625 -1.640625 2.734375 -1.609375 C 3.203125 -1.410156 3.644531 -1.3125 4.0625 -1.3125 C 4.488281 -1.3125 4.828125 -1.367188 5.078125 -1.484375 C 5.335938 -1.609375 5.4375 -1.753906 5.375 -1.921875 Z M 5.375 -1.921875 "/></g></g></g><g fill="#2a3d74" fill-opacity="1"><g transform="translate(239.525593, 165.496434)"><g><path d="M 5.671875 -1.078125 C 5.671875 -1.078125 5.660156 -1.140625 5.640625 -1.265625 C 5.617188 -1.398438 5.585938 -1.546875 5.546875 -1.703125 C 5.503906 -1.867188 5.4375 -1.992188 5.34375 -2.078125 C 5.257812 -2.160156 5.132812 -2.15625 4.96875 -2.0625 C 4.769531 -1.9375 4.644531 -1.75 4.59375 -1.5 C 4.539062 -1.257812 4.515625 -0.984375 4.515625 -0.671875 C 4.515625 -0.367188 4.484375 -0.0546875 4.421875 0.265625 C 4.359375 0.585938 4.207031 0.890625 3.96875 1.171875 C 3.644531 1.585938 3.242188 1.851562 2.765625 1.96875 C 2.285156 2.082031 1.851562 1.972656 1.46875 1.640625 C 1.195312 1.421875 1.007812 1.144531 0.90625 0.8125 C 0.8125 0.476562 0.757812 0.191406 0.75 -0.046875 C 0.75 -0.296875 0.75 -0.421875 0.75 -0.421875 L 1.75 -0.53125 C 1.75 -0.53125 1.75 -0.46875 1.75 -0.34375 C 1.757812 -0.21875 1.785156 -0.0703125 1.828125 0.09375 C 1.867188 0.257812 1.929688 0.394531 2.015625 0.5 C 2.097656 0.613281 2.226562 0.65625 2.40625 0.625 C 2.570312 0.59375 2.675781 0.4375 2.71875 0.15625 C 2.769531 -0.113281 2.8125 -0.441406 2.84375 -0.828125 C 2.882812 -1.222656 2.953125 -1.613281 3.046875 -2 C 3.148438 -2.382812 3.347656 -2.703125 3.640625 -2.953125 C 3.992188 -3.234375 4.34375 -3.378906 4.6875 -3.390625 C 5.039062 -3.398438 5.414062 -3.257812 5.8125 -2.96875 C 6.070312 -2.789062 6.25 -2.5625 6.34375 -2.28125 C 6.445312 -2.007812 6.503906 -1.757812 6.515625 -1.53125 C 6.535156 -1.3125 6.546875 -1.203125 6.546875 -1.203125 Z M 5.671875 -1.078125 "/></g></g></g><g fill="#00bf63" fill-opacity="1"><g transform="translate(100.935707, 218.044555)"><g><path d="M -0.125 0.046875 L -0.125 -0.40625 C 0.675781 -0.488281 1.328125 -0.585938 1.828125 -0.703125 C 2.335938 -0.828125 2.59375 -1.03125 2.59375 -1.3125 L 2.59375 -17.328125 C 2.59375 -17.578125 2.335938 -17.757812 1.828125 -17.875 C 1.328125 -18 0.675781 -18.101562 -0.125 -18.1875 L -0.125 -18.65625 C 0.363281 -18.632812 0.890625 -18.609375 1.453125 -18.578125 C 2.023438 -18.554688 2.5625 -18.535156 3.0625 -18.515625 C 3.5625 -18.503906 3.953125 -18.5 4.234375 -18.5 L 8.203125 -18.5 C 10.109375 -18.5 11.78125 -18.316406 13.21875 -17.953125 C 14.65625 -17.585938 15.78125 -16.976562 16.59375 -16.125 C 17.40625 -15.28125 17.8125 -14.148438 17.8125 -12.734375 C 17.8125 -11.316406 17.410156 -10.1875 16.609375 -9.34375 C 15.804688 -8.5 14.679688 -7.890625 13.234375 -7.515625 C 11.785156 -7.148438 10.109375 -6.96875 8.203125 -6.96875 L 6.09375 -6.96875 C 5.90625 -6.96875 5.8125 -6.910156 5.8125 -6.796875 L 5.8125 -1.3125 C 5.8125 -1.03125 6.054688 -0.828125 6.546875 -0.703125 C 7.046875 -0.585938 7.707031 -0.488281 8.53125 -0.40625 L 8.53125 0.046875 C 8.082031 0.015625 7.59375 -0.00390625 7.0625 -0.015625 C 6.539062 -0.0351562 6.039062 -0.0546875 5.5625 -0.078125 C 5.082031 -0.0976562 4.707031 -0.109375 4.4375 -0.109375 L 4 -0.109375 C 3.707031 -0.109375 3.320312 -0.0976562 2.84375 -0.078125 C 2.363281 -0.0546875 1.859375 -0.0351562 1.328125 -0.015625 C 0.796875 -0.00390625 0.3125 0.015625 -0.125 0.046875 Z M 5.8125 -17.65625 L 5.8125 -7.71875 C 5.8125 -7.613281 5.914062 -7.5625 6.125 -7.5625 L 8.203125 -7.5625 C 9.460938 -7.5625 10.554688 -7.722656 11.484375 -8.046875 C 12.421875 -8.367188 13.144531 -8.910156 13.65625 -9.671875 C 14.164062 -10.429688 14.421875 -11.453125 14.421875 -12.734375 C 14.421875 -14.035156 14.164062 -15.066406 13.65625 -15.828125 C 13.144531 -16.585938 12.421875 -17.128906 11.484375 -17.453125 C 10.554688 -17.773438 9.460938 -17.9375 8.203125 -17.9375 L 6.09375 -17.9375 C 5.90625 -17.9375 5.8125 -17.84375 5.8125 -17.65625 Z M 5.8125 -17.65625 "/></g></g></g><g fill="#00bf63" fill-opacity="1"><g transform="translate(120.071784, 218.044555)"><g><path d="M 12.53125 -1.609375 L 12.96875 -0.96875 C 12.539062 -0.59375 12.09375 -0.335938 11.625 -0.203125 C 11.15625 -0.0664062 10.660156 0 10.140625 0 C 9.816406 0 9.429688 -0.078125 8.984375 -0.234375 C 8.546875 -0.390625 8.195312 -0.660156 7.9375 -1.046875 C 7.695312 -0.753906 7.347656 -0.503906 6.890625 -0.296875 C 6.429688 -0.0976562 5.898438 0 5.296875 0 C 4.253906 0 3.445312 -0.0976562 2.875 -0.296875 C 2.3125 -0.492188 1.910156 -0.769531 1.671875 -1.125 C 1.441406 -1.488281 1.328125 -1.898438 1.328125 -2.359375 C 1.328125 -3.234375 1.726562 -3.90625 2.53125 -4.375 C 3.332031 -4.84375 4.34375 -5.210938 5.5625 -5.484375 L 7.71875 -5.96875 C 7.726562 -6.5 7.734375 -6.988281 7.734375 -7.4375 C 7.734375 -7.894531 7.734375 -8.125 7.734375 -8.125 C 7.753906 -8.945312 7.65625 -9.519531 7.4375 -9.84375 C 7.226562 -10.164062 6.894531 -10.328125 6.4375 -10.328125 C 5.90625 -10.328125 5.523438 -10.234375 5.296875 -10.046875 C 5.066406 -9.867188 4.90625 -9.648438 4.8125 -9.390625 C 4.726562 -9.128906 4.664062 -8.863281 4.625 -8.59375 C 4.582031 -8.332031 4.484375 -8.109375 4.328125 -7.921875 C 3.984375 -7.523438 3.582031 -7.328125 3.125 -7.328125 C 2.914062 -7.328125 2.71875 -7.367188 2.53125 -7.453125 C 2.34375 -7.535156 2.179688 -7.679688 2.046875 -7.890625 C 1.878906 -8.128906 1.773438 -8.363281 1.734375 -8.59375 C 1.703125 -8.820312 1.695312 -9.03125 1.71875 -9.21875 C 2.175781 -9.632812 2.820312 -10.015625 3.65625 -10.359375 C 4.5 -10.710938 5.425781 -10.890625 6.4375 -10.890625 C 7.90625 -10.890625 9.019531 -10.632812 9.78125 -10.125 C 10.550781 -9.625 10.9375 -8.945312 10.9375 -8.09375 C 10.9375 -8.09375 10.9375 -7.921875 10.9375 -7.578125 C 10.9375 -7.242188 10.929688 -6.816406 10.921875 -6.296875 C 10.921875 -5.773438 10.914062 -5.25 10.90625 -4.71875 C 10.894531 -4.1875 10.890625 -3.71875 10.890625 -3.3125 C 10.890625 -2.914062 10.890625 -2.664062 10.890625 -2.5625 C 10.890625 -1.632812 11.09375 -1.171875 11.5 -1.171875 C 11.738281 -1.171875 12.082031 -1.316406 12.53125 -1.609375 Z M 4.6875 -2.4375 C 4.6875 -1.851562 4.769531 -1.425781 4.9375 -1.15625 C 5.113281 -0.894531 5.414062 -0.75 5.84375 -0.71875 C 6.332031 -0.71875 6.710938 -0.847656 6.984375 -1.109375 C 7.265625 -1.378906 7.457031 -1.71875 7.5625 -2.125 C 7.664062 -2.53125 7.71875 -2.941406 7.71875 -3.359375 L 7.71875 -5.25 L 6.234375 -4.921875 C 5.753906 -4.796875 5.375 -4.484375 5.09375 -3.984375 C 4.820312 -3.492188 4.6875 -2.976562 4.6875 -2.4375 Z M 4.6875 -2.4375 "/></g></g></g><g fill="#00bf63" fill-opacity="1"><g transform="translate(133.315893, 218.044555)"><g><path d="M 13.625 -10.125 L 13.625 -9.328125 L 11.84375 -9.328125 C 12.113281 -9.003906 12.328125 -8.648438 12.484375 -8.265625 C 12.648438 -7.878906 12.734375 -7.488281 12.734375 -7.09375 C 12.734375 -5.9375 12.226562 -5.019531 11.21875 -4.34375 C 10.21875 -3.664062 8.816406 -3.328125 7.015625 -3.328125 L 6.71875 -3.328125 C 6.644531 -3.273438 6.578125 -3.179688 6.515625 -3.046875 C 6.460938 -2.910156 6.425781 -2.695312 6.40625 -2.40625 C 6.351562 -1.84375 6.953125 -1.503906 8.203125 -1.390625 C 9.835938 -1.203125 11.035156 -0.800781 11.796875 -0.1875 C 12.554688 0.414062 13 1.109375 13.125 1.890625 C 13.238281 2.609375 13.070312 3.332031 12.625 4.0625 C 12.1875 4.789062 11.523438 5.414062 10.640625 5.9375 C 9.765625 6.46875 8.710938 6.800781 7.484375 6.9375 C 7.359375 6.957031 7.21875 6.972656 7.0625 6.984375 C 6.914062 6.992188 6.765625 7 6.609375 7 C 6.046875 7 5.457031 6.941406 4.84375 6.828125 C 4.226562 6.710938 3.644531 6.523438 3.09375 6.265625 C 2.550781 6.003906 2.109375 5.644531 1.765625 5.1875 C 1.421875 4.738281 1.25 4.171875 1.25 3.484375 C 1.25 2.941406 1.382812 2.429688 1.65625 1.953125 C 1.9375 1.484375 2.289062 1.078125 2.71875 0.734375 C 3.15625 0.398438 3.609375 0.164062 4.078125 0.03125 C 4.179688 0.113281 4.28125 0.21875 4.375 0.34375 C 4.476562 0.46875 4.476562 0.632812 4.375 0.84375 C 4.238281 1.132812 4.15625 1.503906 4.125 1.953125 C 4.101562 2.410156 4.128906 2.910156 4.203125 3.453125 C 4.304688 4.035156 4.550781 4.523438 4.9375 4.921875 C 5.320312 5.328125 5.78125 5.628906 6.3125 5.828125 C 6.851562 6.023438 7.394531 6.125 7.9375 6.125 C 8.507812 6.09375 9.054688 5.921875 9.578125 5.609375 C 10.097656 5.304688 10.5 4.882812 10.78125 4.34375 C 11.070312 3.800781 11.132812 3.171875 10.96875 2.453125 C 10.882812 2.066406 10.570312 1.722656 10.03125 1.421875 C 9.488281 1.117188 8.816406 0.925781 8.015625 0.84375 C 7.210938 0.738281 6.441406 0.550781 5.703125 0.28125 C 4.972656 0.0078125 4.414062 -0.34375 4.03125 -0.78125 C 3.644531 -1.226562 3.554688 -1.765625 3.765625 -2.390625 C 3.847656 -2.617188 4 -2.820312 4.21875 -3 C 4.445312 -3.1875 4.695312 -3.359375 4.96875 -3.515625 C 3.84375 -3.765625 2.953125 -4.203125 2.296875 -4.828125 C 1.648438 -5.453125 1.328125 -6.207031 1.328125 -7.09375 C 1.328125 -8.269531 1.832031 -9.195312 2.84375 -9.875 C 3.851562 -10.550781 5.242188 -10.890625 7.015625 -10.890625 C 7.890625 -10.890625 8.664062 -10.8125 9.34375 -10.65625 C 10.03125 -10.5 10.597656 -10.257812 11.046875 -9.9375 Z M 7.015625 -3.890625 C 7.785156 -3.890625 8.375 -4.132812 8.78125 -4.625 C 9.195312 -5.125 9.40625 -5.945312 9.40625 -7.09375 C 9.40625 -8.257812 9.195312 -9.085938 8.78125 -9.578125 C 8.375 -10.078125 7.785156 -10.328125 7.015625 -10.328125 C 6.265625 -10.328125 5.6875 -10.078125 5.28125 -9.578125 C 4.882812 -9.085938 4.6875 -8.257812 4.6875 -7.09375 C 4.6875 -5.945312 4.882812 -5.125 5.28125 -4.625 C 5.6875 -4.132812 6.265625 -3.890625 7.015625 -3.890625 Z M 7.015625 -3.890625 "/></g></g></g><g fill="#00bf63" fill-opacity="1"><g transform="translate(147.507848, 218.044555)"><g><path d="M 7.796875 -10.890625 C 9.078125 -10.890625 10.203125 -10.671875 11.171875 -10.234375 C 12.148438 -9.796875 12.914062 -9.171875 13.46875 -8.359375 C 14.019531 -7.554688 14.296875 -6.585938 14.296875 -5.453125 C 14.296875 -4.328125 14.019531 -3.351562 13.46875 -2.53125 C 12.914062 -1.71875 12.148438 -1.09375 11.171875 -0.65625 C 10.203125 -0.21875 9.078125 0 7.796875 0 C 6.515625 0 5.378906 -0.21875 4.390625 -0.65625 C 3.410156 -1.09375 2.640625 -1.71875 2.078125 -2.53125 C 1.523438 -3.351562 1.25 -4.328125 1.25 -5.453125 C 1.25 -6.585938 1.523438 -7.554688 2.078125 -8.359375 C 2.640625 -9.171875 3.410156 -9.796875 4.390625 -10.234375 C 5.378906 -10.671875 6.515625 -10.890625 7.796875 -10.890625 Z M 7.796875 -0.5625 C 8.710938 -0.5625 9.460938 -0.957031 10.046875 -1.75 C 10.640625 -2.550781 10.9375 -3.785156 10.9375 -5.453125 C 10.9375 -7.128906 10.640625 -8.359375 10.046875 -9.140625 C 9.460938 -9.929688 8.710938 -10.328125 7.796875 -10.328125 C 6.847656 -10.328125 6.078125 -9.929688 5.484375 -9.140625 C 4.898438 -8.359375 4.609375 -7.128906 4.609375 -5.453125 C 4.609375 -3.785156 4.898438 -2.550781 5.484375 -1.75 C 6.078125 -0.957031 6.847656 -0.5625 7.796875 -0.5625 Z M 7.796875 -0.5625 "/></g></g></g><g fill="#00bf63" fill-opacity="1"><g transform="translate(163.364917, 218.044555)"><g/></g></g><g fill="#00bf63" fill-opacity="1"><g transform="translate(170.973235, 218.044555)"><g><path d="M 2.59375 -17.328125 C 2.59375 -17.578125 2.335938 -17.757812 1.828125 -17.875 C 1.328125 -18 0.675781 -18.101562 -0.125 -18.1875 L -0.125 -18.65625 C 0.363281 -18.632812 0.898438 -18.609375 1.484375 -18.578125 C 2.066406 -18.554688 2.609375 -18.535156 3.109375 -18.515625 C 3.617188 -18.503906 3.992188 -18.5 4.234375 -18.5 L 16.53125 -18.5 C 16.53125 -18.5 16.519531 -18.316406 16.5 -17.953125 C 16.488281 -17.585938 16.472656 -17.128906 16.453125 -16.578125 C 16.429688 -16.035156 16.410156 -15.492188 16.390625 -14.953125 C 16.378906 -14.410156 16.382812 -13.960938 16.40625 -13.609375 L 15.765625 -13.609375 C 15.765625 -13.796875 15.753906 -14.109375 15.734375 -14.546875 C 15.710938 -14.984375 15.660156 -15.4375 15.578125 -15.90625 C 15.492188 -16.382812 15.347656 -16.800781 15.140625 -17.15625 C 14.941406 -17.507812 14.648438 -17.691406 14.265625 -17.703125 C 14.234375 -17.703125 14.015625 -17.707031 13.609375 -17.71875 C 13.210938 -17.726562 12.707031 -17.738281 12.09375 -17.75 C 11.476562 -17.757812 10.820312 -17.769531 10.125 -17.78125 C 9.4375 -17.800781 8.769531 -17.8125 8.125 -17.8125 C 7.476562 -17.820312 6.921875 -17.828125 6.453125 -17.828125 C 6.265625 -17.828125 6.109375 -17.804688 5.984375 -17.765625 C 5.867188 -17.722656 5.8125 -17.566406 5.8125 -17.296875 L 5.8125 -10.375 C 5.8125 -10.269531 5.890625 -10.21875 6.046875 -10.21875 L 10.78125 -10.21875 C 11.070312 -10.21875 11.257812 -10.460938 11.34375 -10.953125 C 11.4375 -11.441406 11.523438 -12.085938 11.609375 -12.890625 L 12.25 -12.890625 C 12.21875 -12.515625 12.1875 -12.066406 12.15625 -11.546875 C 12.132812 -11.035156 12.125 -10.492188 12.125 -9.921875 C 12.125 -9.421875 12.140625 -8.914062 12.171875 -8.40625 C 12.203125 -7.90625 12.226562 -7.398438 12.25 -6.890625 L 11.609375 -6.890625 C 11.523438 -7.710938 11.4375 -8.363281 11.34375 -8.84375 C 11.257812 -9.332031 11.066406 -9.578125 10.765625 -9.578125 C 10.535156 -9.578125 10.003906 -9.582031 9.171875 -9.59375 C 8.335938 -9.601562 7.3125 -9.609375 6.09375 -9.609375 C 5.90625 -9.609375 5.8125 -9.539062 5.8125 -9.40625 L 5.8125 -0.96875 C 5.8125 -0.820312 5.941406 -0.75 6.203125 -0.75 C 7.617188 -0.75 9 -0.757812 10.34375 -0.78125 C 11.695312 -0.800781 13.082031 -0.832031 14.5 -0.875 C 14.726562 -0.875 14.921875 -1.015625 15.078125 -1.296875 C 15.242188 -1.578125 15.375 -1.925781 15.46875 -2.34375 C 15.5625 -2.757812 15.632812 -3.191406 15.6875 -3.640625 C 15.75 -4.097656 15.789062 -4.507812 15.8125 -4.875 C 15.84375 -5.25 15.867188 -5.503906 15.890625 -5.640625 L 16.53125 -5.640625 C 16.507812 -5.398438 16.503906 -5.054688 16.515625 -4.609375 C 16.523438 -4.171875 16.53125 -3.691406 16.53125 -3.171875 C 16.539062 -2.660156 16.554688 -2.171875 16.578125 -1.703125 C 16.597656 -1.234375 16.609375 -0.847656 16.609375 -0.546875 C 16.617188 -0.253906 16.625 -0.109375 16.625 -0.109375 L 4.203125 -0.109375 C 3.992188 -0.109375 3.703125 -0.101562 3.328125 -0.09375 C 2.953125 -0.0820312 2.539062 -0.0664062 2.09375 -0.046875 C 1.65625 -0.0351562 1.234375 -0.0195312 0.828125 0 C 0.429688 0.03125 0.113281 0.0546875 -0.125 0.078125 L -0.125 -0.40625 C 0.675781 -0.488281 1.328125 -0.585938 1.828125 -0.703125 C 2.335938 -0.828125 2.59375 -1.03125 2.59375 -1.3125 Z M 2.59375 -17.328125 "/></g></g></g><g fill="#00bf63" fill-opacity="1"><g transform="translate(188.87969, 218.044555)"><g><path d="M 11.578125 -1.28125 C 11.867188 -0.851562 12.734375 -0.5625 14.171875 -0.40625 L 14.171875 0.078125 C 13.429688 0.0234375 12.675781 -0.015625 11.90625 -0.046875 C 11.144531 -0.0859375 10.550781 -0.109375 10.125 -0.109375 L 9.859375 -0.109375 C 9.453125 -0.109375 8.925781 -0.0859375 8.28125 -0.046875 C 7.644531 -0.015625 6.960938 0.0234375 6.234375 0.078125 L 6.234375 -0.40625 C 7.046875 -0.488281 7.578125 -0.609375 7.828125 -0.765625 C 8.078125 -0.921875 8.132812 -1.101562 8 -1.3125 C 7.925781 -1.40625 7.769531 -1.625 7.53125 -1.96875 C 7.289062 -2.3125 7.035156 -2.679688 6.765625 -3.078125 C 6.492188 -3.472656 6.265625 -3.804688 6.078125 -4.078125 C 6.003906 -4.191406 5.9375 -4.25 5.875 -4.25 C 5.832031 -4.25 5.78125 -4.21875 5.71875 -4.15625 L 3.4375 -1.234375 C 3.300781 -1.046875 3.3125 -0.878906 3.46875 -0.734375 C 3.632812 -0.597656 4.117188 -0.488281 4.921875 -0.40625 L 4.921875 0.078125 C 4.597656 0.046875 4.226562 0.0078125 3.8125 -0.03125 C 3.40625 -0.0820312 2.976562 -0.109375 2.53125 -0.109375 C 2.363281 -0.109375 2.070312 -0.0859375 1.65625 -0.046875 C 1.238281 -0.015625 0.769531 0.0234375 0.25 0.078125 L 0.25 -0.40625 C 1.101562 -0.488281 1.679688 -0.609375 1.984375 -0.765625 C 2.296875 -0.921875 2.554688 -1.128906 2.765625 -1.390625 C 3.160156 -1.910156 3.585938 -2.460938 4.046875 -3.046875 C 4.503906 -3.628906 4.941406 -4.175781 5.359375 -4.6875 C 5.410156 -4.769531 5.4375 -4.859375 5.4375 -4.953125 C 5.4375 -5.046875 5.367188 -5.207031 5.234375 -5.4375 C 5.078125 -5.65625 4.859375 -5.96875 4.578125 -6.375 C 4.304688 -6.789062 4.019531 -7.222656 3.71875 -7.671875 C 3.425781 -8.128906 3.160156 -8.535156 2.921875 -8.890625 C 2.679688 -9.253906 2.519531 -9.492188 2.4375 -9.609375 C 2.25 -9.898438 1.976562 -10.097656 1.625 -10.203125 C 1.28125 -10.316406 0.710938 -10.414062 -0.078125 -10.5 L -0.078125 -10.9375 C 0.660156 -10.90625 1.414062 -10.867188 2.1875 -10.828125 C 2.96875 -10.796875 3.5625 -10.78125 3.96875 -10.78125 L 4.234375 -10.78125 C 4.640625 -10.78125 5.160156 -10.796875 5.796875 -10.828125 C 6.441406 -10.867188 7.128906 -10.90625 7.859375 -10.9375 L 7.859375 -10.484375 C 7.046875 -10.410156 6.5 -10.296875 6.21875 -10.140625 C 5.945312 -9.992188 5.863281 -9.832031 5.96875 -9.65625 L 7.8125 -6.890625 C 7.84375 -6.835938 7.882812 -6.8125 7.9375 -6.8125 C 8.03125 -6.8125 8.082031 -6.835938 8.09375 -6.890625 C 8.695312 -7.679688 9.1875 -8.3125 9.5625 -8.78125 C 9.945312 -9.25 10.203125 -9.550781 10.328125 -9.6875 C 10.441406 -9.851562 10.398438 -10.007812 10.203125 -10.15625 C 10.015625 -10.300781 9.523438 -10.414062 8.734375 -10.5 L 8.734375 -10.9375 C 9.316406 -10.882812 9.78125 -10.84375 10.125 -10.8125 C 10.46875 -10.789062 10.816406 -10.78125 11.171875 -10.78125 C 11.359375 -10.78125 11.648438 -10.796875 12.046875 -10.828125 C 12.453125 -10.867188 12.921875 -10.90625 13.453125 -10.9375 L 13.453125 -10.5 C 12.671875 -10.40625 12.113281 -10.289062 11.78125 -10.15625 C 11.445312 -10.03125 11.1875 -9.847656 11 -9.609375 C 10.925781 -9.503906 10.78125 -9.316406 10.5625 -9.046875 C 10.351562 -8.773438 10.113281 -8.457031 9.84375 -8.09375 C 9.570312 -7.738281 9.3125 -7.398438 9.0625 -7.078125 C 8.8125 -6.765625 8.609375 -6.515625 8.453125 -6.328125 C 8.367188 -6.191406 8.367188 -6.070312 8.453125 -5.96875 C 8.910156 -5.320312 9.363281 -4.65625 9.8125 -3.96875 C 10.269531 -3.289062 10.660156 -2.703125 10.984375 -2.203125 C 11.316406 -1.703125 11.515625 -1.394531 11.578125 -1.28125 Z M 11.578125 -1.28125 "/></g></g></g><g fill="#00bf63" fill-opacity="1"><g transform="translate(203.071644, 218.044555)"><g><path d="M -0.109375 0.078125 L -0.109375 -0.40625 C 0.703125 -0.488281 1.273438 -0.585938 1.609375 -0.703125 C 1.953125 -0.816406 2.125 -1.007812 2.125 -1.28125 L 2.125 -9.359375 C 2.125 -9.710938 1.878906 -9.890625 1.390625 -9.890625 L -0.109375 -9.890625 L -0.109375 -10.328125 C 0.628906 -10.378906 1.410156 -10.441406 2.234375 -10.515625 C 3.066406 -10.597656 4.109375 -10.707031 5.359375 -10.84375 L 5.359375 -1.3125 C 5.359375 -1.03125 5.523438 -0.828125 5.859375 -0.703125 C 6.203125 -0.585938 6.773438 -0.488281 7.578125 -0.40625 L 7.578125 0.046875 C 6.910156 0.015625 6.234375 -0.015625 5.546875 -0.046875 C 4.859375 -0.0859375 4.328125 -0.109375 3.953125 -0.109375 L 3.53125 -0.109375 C 3.15625 -0.109375 2.617188 -0.0820312 1.921875 -0.03125 C 1.222656 0.0078125 0.546875 0.046875 -0.109375 0.078125 Z M 3.765625 -12.984375 C 3.234375 -12.984375 2.785156 -13.144531 2.421875 -13.46875 C 2.066406 -13.800781 1.890625 -14.25 1.890625 -14.8125 C 1.890625 -15.375 2.066406 -15.816406 2.421875 -16.140625 C 2.785156 -16.460938 3.234375 -16.625 3.765625 -16.625 C 4.296875 -16.625 4.734375 -16.460938 5.078125 -16.140625 C 5.421875 -15.816406 5.59375 -15.375 5.59375 -14.8125 C 5.59375 -14.25 5.421875 -13.800781 5.078125 -13.46875 C 4.734375 -13.144531 4.296875 -12.984375 3.765625 -12.984375 Z M 3.765625 -12.984375 "/></g></g></g><g fill="#00bf63" fill-opacity="1"><g transform="translate(210.705586, 218.044555)"><g><path d="M 0.53125 -10.296875 L 0.53125 -10.890625 C 1.539062 -10.890625 2.421875 -11.195312 3.171875 -11.8125 C 3.929688 -12.425781 4.4375 -13.269531 4.6875 -14.34375 L 5.765625 -14.34375 L 5.765625 -10.890625 L 9.890625 -10.890625 L 9.890625 -10.296875 L 5.765625 -10.296875 C 5.765625 -9.203125 5.757812 -8.09375 5.75 -6.96875 C 5.738281 -5.851562 5.734375 -4.742188 5.734375 -3.640625 C 5.734375 -2.816406 5.828125 -2.144531 6.015625 -1.625 C 6.203125 -1.101562 6.664062 -0.816406 7.40625 -0.765625 C 7.4375 -0.765625 7.472656 -0.765625 7.515625 -0.765625 C 7.554688 -0.765625 7.597656 -0.765625 7.640625 -0.765625 C 8.023438 -0.765625 8.410156 -0.8125 8.796875 -0.90625 C 9.179688 -1 9.5 -1.085938 9.75 -1.171875 C 10.007812 -1.265625 10.140625 -1.3125 10.140625 -1.3125 L 10.421875 -0.71875 C 10.421875 -0.71875 10.304688 -0.65625 10.078125 -0.53125 C 9.847656 -0.414062 9.503906 -0.296875 9.046875 -0.171875 C 8.585938 -0.0546875 8.003906 0 7.296875 0 C 6.085938 0 5.128906 -0.1875 4.421875 -0.5625 C 3.722656 -0.9375 3.234375 -1.40625 2.953125 -1.96875 C 2.671875 -2.53125 2.53125 -3.085938 2.53125 -3.640625 L 2.53125 -10.296875 Z M 0.53125 -10.296875 "/></g></g></g><g fill="#00bf63" fill-opacity="1"><g transform="translate(221.900321, 218.044555)"><g><path d="M 7.796875 -10.890625 C 9.078125 -10.890625 10.203125 -10.671875 11.171875 -10.234375 C 12.148438 -9.796875 12.914062 -9.171875 13.46875 -8.359375 C 14.019531 -7.554688 14.296875 -6.585938 14.296875 -5.453125 C 14.296875 -4.328125 14.019531 -3.351562 13.46875 -2.53125 C 12.914062 -1.71875 12.148438 -1.09375 11.171875 -0.65625 C 10.203125 -0.21875 9.078125 0 7.796875 0 C 6.515625 0 5.378906 -0.21875 4.390625 -0.65625 C 3.410156 -1.09375 2.640625 -1.71875 2.078125 -2.53125 C 1.523438 -3.351562 1.25 -4.328125 1.25 -5.453125 C 1.25 -6.585938 1.523438 -7.554688 2.078125 -8.359375 C 2.640625 -9.171875 3.410156 -9.796875 4.390625 -10.234375 C 5.378906 -10.671875 6.515625 -10.890625 7.796875 -10.890625 Z M 7.796875 -0.5625 C 8.710938 -0.5625 9.460938 -0.957031 10.046875 -1.75 C 10.640625 -2.550781 10.9375 -3.785156 10.9375 -5.453125 C 10.9375 -7.128906 10.640625 -8.359375 10.046875 -9.140625 C 9.460938 -9.929688 8.710938 -10.328125 7.796875 -10.328125 C 6.847656 -10.328125 6.078125 -9.929688 5.484375 -9.140625 C 4.898438 -8.359375 4.609375 -7.128906 4.609375 -5.453125 C 4.609375 -3.785156 4.898438 -2.550781 5.484375 -1.75 C 6.078125 -0.957031 6.847656 -0.5625 7.796875 -0.5625 Z M 7.796875 -0.5625 "/></g></g></g><g fill="#00bf63" fill-opacity="1"><g transform="translate(237.757391, 218.044555)"><g><path d="M 10.015625 -3.25 C 10.003906 -2.707031 9.851562 -2.179688 9.5625 -1.671875 C 9.28125 -1.171875 8.796875 -0.765625 8.109375 -0.453125 C 7.421875 -0.148438 6.441406 0 5.171875 0 C 4.828125 0 4.414062 -0.0234375 3.9375 -0.078125 C 3.46875 -0.140625 3 -0.226562 2.53125 -0.34375 C 2.070312 -0.46875 1.695312 -0.609375 1.40625 -0.765625 C 1.320312 -0.972656 1.273438 -1.238281 1.265625 -1.5625 C 1.253906 -1.882812 1.3125 -2.160156 1.4375 -2.390625 C 1.570312 -2.609375 1.75 -2.769531 1.96875 -2.875 C 2.195312 -2.976562 2.421875 -3.03125 2.640625 -3.03125 C 2.878906 -3.03125 3.097656 -2.976562 3.296875 -2.875 C 3.503906 -2.78125 3.671875 -2.640625 3.796875 -2.453125 C 3.929688 -2.265625 4.046875 -2.03125 4.140625 -1.75 C 4.234375 -1.46875 4.363281 -1.21875 4.53125 -1 C 4.707031 -0.789062 4.957031 -0.679688 5.28125 -0.671875 C 5.3125 -0.671875 5.332031 -0.671875 5.34375 -0.671875 C 5.351562 -0.671875 5.363281 -0.671875 5.375 -0.671875 C 6.144531 -0.671875 6.65625 -0.882812 6.90625 -1.3125 C 7.164062 -1.738281 7.28125 -2.222656 7.25 -2.765625 C 7.21875 -3.316406 7.03125 -3.734375 6.6875 -4.015625 C 6.34375 -4.296875 5.890625 -4.546875 5.328125 -4.765625 C 4.578125 -5.054688 3.882812 -5.375 3.25 -5.71875 C 2.625 -6.0625 2.128906 -6.453125 1.765625 -6.890625 C 1.410156 -7.335938 1.257812 -7.859375 1.3125 -8.453125 C 1.34375 -8.867188 1.476562 -9.257812 1.71875 -9.625 C 1.957031 -9.988281 2.390625 -10.285156 3.015625 -10.515625 C 3.648438 -10.742188 4.554688 -10.859375 5.734375 -10.859375 C 6.234375 -10.859375 6.78125 -10.816406 7.375 -10.734375 C 7.976562 -10.648438 8.578125 -10.488281 9.171875 -10.25 C 9.222656 -10.09375 9.25 -9.894531 9.25 -9.65625 C 9.25 -9.414062 9.207031 -9.175781 9.125 -8.9375 C 9.019531 -8.6875 8.851562 -8.5 8.625 -8.375 C 8.394531 -8.257812 8.148438 -8.203125 7.890625 -8.203125 C 7.441406 -8.203125 7.078125 -8.347656 6.796875 -8.640625 C 6.648438 -8.804688 6.539062 -9.019531 6.46875 -9.28125 C 6.40625 -9.550781 6.3125 -9.789062 6.1875 -10 C 6.070312 -10.21875 5.863281 -10.328125 5.5625 -10.328125 C 5.164062 -10.328125 4.859375 -10.234375 4.640625 -10.046875 C 4.429688 -9.867188 4.285156 -9.648438 4.203125 -9.390625 C 4.128906 -9.140625 4.09375 -8.90625 4.09375 -8.6875 C 4.09375 -8.1875 4.28125 -7.820312 4.65625 -7.59375 C 5.039062 -7.363281 5.492188 -7.140625 6.015625 -6.921875 C 6.429688 -6.742188 6.875 -6.550781 7.34375 -6.34375 C 7.8125 -6.144531 8.25 -5.910156 8.65625 -5.640625 C 9.070312 -5.367188 9.40625 -5.039062 9.65625 -4.65625 C 9.914062 -4.269531 10.035156 -3.800781 10.015625 -3.25 Z M 10.015625 -3.25 "/></g></g></g><g fill="#00bf63" fill-opacity="1"><g transform="translate(249.310762, 218.044555)"><g><path d="M 7.796875 -10.890625 C 9.078125 -10.890625 10.203125 -10.671875 11.171875 -10.234375 C 12.148438 -9.796875 12.914062 -9.171875 13.46875 -8.359375 C 14.019531 -7.554688 14.296875 -6.585938 14.296875 -5.453125 C 14.296875 -4.328125 14.019531 -3.351562 13.46875 -2.53125 C 12.914062 -1.71875 12.148438 -1.09375 11.171875 -0.65625 C 10.203125 -0.21875 9.078125 0 7.796875 0 C 6.515625 0 5.378906 -0.21875 4.390625 -0.65625 C 3.410156 -1.09375 2.640625 -1.71875 2.078125 -2.53125 C 1.523438 -3.351562 1.25 -4.328125 1.25 -5.453125 C 1.25 -6.585938 1.523438 -7.554688 2.078125 -8.359375 C 2.640625 -9.171875 3.410156 -9.796875 4.390625 -10.234375 C 5.378906 -10.671875 6.515625 -10.890625 7.796875 -10.890625 Z M 7.796875 -0.5625 C 8.710938 -0.5625 9.460938 -0.957031 10.046875 -1.75 C 10.640625 -2.550781 10.9375 -3.785156 10.9375 -5.453125 C 10.9375 -7.128906 10.640625 -8.359375 10.046875 -9.140625 C 9.460938 -9.929688 8.710938 -10.328125 7.796875 -10.328125 C 6.847656 -10.328125 6.078125 -9.929688 5.484375 -9.140625 C 4.898438 -8.359375 4.609375 -7.128906 4.609375 -5.453125 C 4.609375 -3.785156 4.898438 -2.550781 5.484375 -1.75 C 6.078125 -0.957031 6.847656 -0.5625 7.796875 -0.5625 Z M 7.796875 -0.5625 "/></g></g></g></svg>